ffmpeg version 4.4.2-0ubuntu0.22.04.1 Copyright (c) 2000-2021 the FFmpeg developers
  built with gcc 11 (Ubuntu 11.2.0-19ubuntu1)
  configuration: --prefix=/usr --extra-version=0ubuntu0.22.04.1 --toolchain=hardened --libdir=/usr/lib/x86_64-linux-gnu --incdir=/usr/include/x86_64-linux-gnu --arch=amd64 --enable-gpl --disable-stripping --enable-gnutls --enable-ladspa --enable-libaom --enable-libass --enable-libbluray --enable-libbs2b --enable-libcaca --enable-libcdio --enable-libcodec2 --enable-libdav1d --enable-libflite --enable-libfontconfig --enable-libfreetype --enable-libfribidi --enable-libgme --enable-libgsm --enable-libjack --enable-libmp3lame --enable-libmysofa --enable-libopenjpeg --enable-libopenmpt --enable-libopus --enable-libpulse --enable-librabbitmq --enable-librubberband --enable-libshine --enable-libsnappy --enable-libsoxr --enable-libspeex --enable-libsrt --enable-libssh --enable-libtheora --enable-libtwolame --enable-libvidstab --enable-libvorbis --enable-libvpx --enable-libwebp --enable-libx265 --enable-libxml2 --enable-libxvid --enable-libzimg --enable-libzmq --enable-libzvbi --enable-lv2 --enable-omx --enable-openal --enable-opencl --enable-opengl --enable-sdl2 --enable-pocketsphinx --enable-librsvg --enable-libmfx --enable-libdc1394 --enable-libdrm --enable-libiec61883 --enable-chromaprint --enable-frei0r --enable-libx264 --enable-shared
  libavutil      56. 70.100 / 56. 70.100
  libavcodec     58.134.100 / 58.134.100
  libavformat    58. 76.100 / 58. 76.100
  libavdevice    58. 13.100 / 58. 13.100
  libavfilter     7.110.100 /  7.110.100
  libswscale      5.  9.100 /  5.  9.100
  libswresample   3.  9.100 /  3.  9.100
  libpostproc    55.  9.100 / 55.  9.100
Input #0, flv, from '/storage/32426326/20250701/32426326-20250701-141501-478.flv':
  Metadata:
    2.1             : false
    4.1             : false
    fileSize        : 0
    displayWidth    : 2560
    4.0             : false
    audiochannels   : 2
    3.1             : false
    displayHeight   : 1440
    7.1             : false
    fps             : 60
    5.1             : false
    cdn_ip          : 192.168.252.3
    encoder         : obs-output module (libobs version 31.0.2)
    Title           : 技术主播没有GG
    Artist          : 蓝音BuBuLine (32426326)
    Comment         : mikufans直播间 32426326 的直播录像
                    : 主播名: 蓝音BuBuLine
                    : 直播标题: 技术主播没有GG
                    : 直播分区: 单机游戏·主机游戏
                    : 录制时间: 2025-07-01T14:15:01.5594639+00:00
                    : 直播服务器:
                    : d1--ov-gotcha07.bilivideo.com [156.59.188.243]
                    : 
                    : 使用 mikufans录播姬 录制 https://rec.danmuji.org
                    : 录播姬版本: 2.17.0
    RecordedBy      : BililiveRecorder mikufans录播姬
    RecordedFrom    : d1--ov-gotcha07.bilivideo.com
    StreamServers   : d1--ov-gotcha07.bilivideo.com [156.59.188.243]
    RecorderVersion : 2.17.0+Branch.tags-v2.17.0.Sha.79d60d3b69038634787f3d53faa1124d513cf64a
    StartTime       : Tue, 01 Jul 2025 14:15:01 +0000
    RoomId          : 32426326
    ShortId         : 0
    Name            : 蓝音BuBuLine
    StreamTitle     : 技术主播没有GG
    AreaNameParent  : 单机游戏
    AreaNameChild   : 主机游戏
  Duration: 06:57:42.61, start: 0.035000, bitrate: 8681 kb/s
  Stream #0:0: Video: h264 (High), yuv420p(tv, bt709, progressive), 2560x1440 [SAR 1:1 DAR 16:9], 10240 kb/s, 60 fps, 60 tbr, 1k tbn, 120 tbc
  Stream #0:1: Audio: aac (LC), 48000 Hz, stereo, fltp, 196 kb/s
Stream mapping:
  Stream #0:0 -> #0:0 (h264 (native) -> png (native))
Press [q] to stop, [?] for help
Output #0, image2, to '/storage/32426326/20250701/32426326-20250701-141501-478.all.thumb.png':
  Metadata:
    2.1             : false
    4.1             : false
    fileSize        : 0
    displayWidth    : 2560
    4.0             : false
    audiochannels   : 2
    3.1             : false
    displayHeight   : 1440
    7.1             : false
    fps             : 60
    5.1             : false
    cdn_ip          : 192.168.252.3
    AreaNameChild   : 主机游戏
    Title           : 技术主播没有GG
    Artist          : 蓝音BuBuLine (32426326)
    Comment         : mikufans直播间 32426326 的直播录像
                    : 主播名: 蓝音BuBuLine
                    : 直播标题: 技术主播没有GG
                    : 直播分区: 单机游戏·主机游戏
                    : 录制时间: 2025-07-01T14:15:01.5594639+00:00
                    : 直播服务器:
                    : d1--ov-gotcha07.bilivideo.com [156.59.188.243]
                    : 
                    : 使用 mikufans录播姬 录制 https://rec.danmuji.org
                    : 录播姬版本: 2.17.0
    RecordedBy      : BililiveRecorder mikufans录播姬
    RecordedFrom    : d1--ov-gotcha07.bilivideo.com
    StreamServers   : d1--ov-gotcha07.bilivideo.com [156.59.188.243]
    RecorderVersion : 2.17.0+Branch.tags-v2.17.0.Sha.79d60d3b69038634787f3d53faa1124d513cf64a
    StartTime       : Tue, 01 Jul 2025 14:15:01 +0000
    RoomId          : 32426326
    ShortId         : 0
    Name            : 蓝音BuBuLine
    StreamTitle     : 技术主播没有GG
    AreaNameParent  : 单机游戏
    encoder         : Lavf58.76.100
  Stream #0:0: Video: png, rgb24(pc, gbr/bt709/bt709, progressive), 2560x1440 [SAR 1:1 DAR 16:9], q=2-31, 200 kb/s, 60 fps, 60 tbn
    Metadata:
      encoder         : Lavc58.134.100 png
frame=    1 fps=0.0 q=0.0 size=N/A time=00:00:00.00 bitrate=N/A speed=   0x    frame=    1 fps=0.0 q=-0.0 Lsize=N/A time=00:00:00.01 bitrate=N/A speed=0.0326x    
video:3823kB audio:0kB subtitle:0kB other streams:0kB global headers:0kB muxing overhead: unknown
ffmpeg version 4.4.2-0ubuntu0.22.04.1 Copyright (c) 2000-2021 the FFmpeg developers
  built with gcc 11 (Ubuntu 11.2.0-19ubuntu1)
  configuration: --prefix=/usr --extra-version=0ubuntu0.22.04.1 --toolchain=hardened --libdir=/usr/lib/x86_64-linux-gnu --incdir=/usr/include/x86_64-linux-gnu --arch=amd64 --enable-gpl --disable-stripping --enable-gnutls --enable-ladspa --enable-libaom --enable-libass --enable-libbluray --enable-libbs2b --enable-libcaca --enable-libcdio --enable-libcodec2 --enable-libdav1d --enable-libflite --enable-libfontconfig --enable-libfreetype --enable-libfribidi --enable-libgme --enable-libgsm --enable-libjack --enable-libmp3lame --enable-libmysofa --enable-libopenjpeg --enable-libopenmpt --enable-libopus --enable-libpulse --enable-librabbitmq --enable-librubberband --enable-libshine --enable-libsnappy --enable-libsoxr --enable-libspeex --enable-libsrt --enable-libssh --enable-libtheora --enable-libtwolame --enable-libvidstab --enable-libvorbis --enable-libvpx --enable-libwebp --enable-libx265 --enable-libxml2 --enable-libxvid --enable-libzimg --enable-libzmq --enable-libzvbi --enable-lv2 --enable-omx --enable-openal --enable-opencl --enable-opengl --enable-sdl2 --enable-pocketsphinx --enable-librsvg --enable-libmfx --enable-libdc1394 --enable-libdrm --enable-libiec61883 --enable-chromaprint --enable-frei0r --enable-libx264 --enable-shared
  libavutil      56. 70.100 / 56. 70.100
  libavcodec     58.134.100 / 58.134.100
  libavformat    58. 76.100 / 58. 76.100
  libavdevice    58. 13.100 / 58. 13.100
  libavfilter     7.110.100 /  7.110.100
  libswscale      5.  9.100 /  5.  9.100
  libswresample   3.  9.100 /  3.  9.100
  libpostproc    55.  9.100 / 55.  9.100
[flv @ 0x555e84c75fc0] Auto-inserting h264_mp4toannexb bitstream filter
Input #0, concat, from '/storage/32426326/20250701/32426326-20250701-141501-478.all.concat.txt':
  Duration: N/A, start: 0.000000, bitrate: 10436 kb/s
  Stream #0:0: Video: h264 (High), yuv420p(tv, bt709, progressive), 2560x1440 [SAR 1:1 DAR 16:9], 10240 kb/s, 60 fps, 60 tbr, 1k tbn, 120 tbc
  Stream #0:1: Audio: aac (LC), 48000 Hz, stereo, fltp, 196 kb/s
Output #0, flv, to '/storage/32426326/20250701/32426326-20250701-141501-478.all.flv':
  Metadata:
    encoder         : Lavf58.76.100
  Stream #0:0: Video: h264 (High) ([7][0][0][0] / 0x0007), yuv420p(tv, bt709, progressive), 2560x1440 [SAR 1:1 DAR 16:9], q=2-31, 10240 kb/s, 60 fps, 60 tbr, 1k tbn, 1k tbc
  Stream #0:1: Audio: aac (LC) ([10][0][0][0] / 0x000A), 48000 Hz, stereo, fltp, 196 kb/s
Stream mapping:
  Stream #0:0 -> #0:0 (copy)
  Stream #0:1 -> #0:1 (copy)
Press [q] to stop, [?] for help
frame=    1 fps=0.0 q=-1.0 size=       0kB time=00:00:00.00 bitrate=N/A speed=N/A    frame= 4443 fps=0.0 q=-1.0 size=   37120kB time=00:01:14.11 bitrate=4102.7kbits/s speed= 148x    frame= 6409 fps=6407 q=-1.0 size=   76544kB time=00:01:46.83 bitrate=5869.3kbits/s speed= 107x    frame= 8484 fps=5653 q=-1.0 size=  114432kB time=00:02:21.39 bitrate=6629.8kbits/s speed=94.2x    frame=10408 fps=5202 q=-1.0 size=  154368kB time=00:02:53.45 bitrate=7290.5kbits/s speed=86.7x    frame=12159 fps=4862 q=-1.0 size=  190464kB time=00:03:22.62 bitrate=7700.3kbits/s speed=  81x    frame=13910 fps=4635 q=-1.0 size=  227072kB time=00:03:51.78 bitrate=8025.5kbits/s speed=77.2x    frame=15804 fps=4513 q=-1.0 size=  266496kB time=00:04:23.37 bitrate=8289.2kbits/s speed=75.2x    frame=17500 fps=4373 q=-1.0 size=  301824kB time=00:04:51.60 bitrate=8479.1kbits/s speed=72.9x    frame=19412 fps=4312 q=-1.0 size=  341504kB time=00:05:23.46 bitrate=8648.7kbits/s speed=71.8x    frame=21286 fps=4255 q=-1.0 size=  380160kB time=00:05:54.69 bitrate=8780.1kbits/s speed=70.9x    frame=22902 fps=4162 q=-1.0 size=  413952kB time=00:06:21.59 bitrate=8886.7kbits/s speed=69.3x    frame=24790 fps=4130 q=-1.0 size=  453120kB time=00:06:53.05 bitrate=8986.6kbits/s speed=68.8x    frame=26650 fps=4098 q=-1.0 size=  492032kB time=00:07:24.01 bitrate=9077.9kbits/s speed=68.3x    frame=28552 fps=4077 q=-1.0 size=  531456kB time=00:07:55.69 bitrate=9152.2kbits/s speed=67.9x    frame=30452 fps=4058 q=-1.0 size=  570880kB time=00:08:27.36 bitrate=9217.5kbits/s speed=67.6x    frame=32223 fps=4026 q=-1.0 size=  607488kB time=00:08:56.83 bitrate=9270.2kbits/s speed=67.1x    frame=34147 fps=4015 q=-1.0 size=  647424kB time=00:09:28.83 bitrate=9323.7kbits/s speed=66.9x    frame=36072 fps=4006 q=-1.0 size=  687616kB time=00:10:00.90 bitrate=9374.1kbits/s speed=66.7x    frame=38107 fps=4009 q=-1.0 size=  726016kB time=00:10:34.84 bitrate=9368.5kbits/s speed=66.8x    frame=40430 fps=4040 q=-1.0 size=  765952kB time=00:11:13.53 bitrate=9316.0kbits/s speed=67.3x    frame=42227 fps=4019 q=-1.0 size=  803328kB time=00:11:43.46 bitrate=9354.9kbits/s speed=  67x    frame=44145 fps=4011 q=-1.0 size=  843264kB time=00:12:15.40 bitrate=9393.5kbits/s speed=66.8x    frame=46016 fps=3999 q=-1.0 size=  882176kB time=00:12:46.58 bitrate=9427.3kbits/s speed=66.6x    frame=47790 fps=3980 q=-1.0 size=  918784kB time=00:13:16.14 bitrate=9453.9kbits/s speed=66.3x    frame=49614 fps=3967 q=-1.0 size=  956928kB time=00:13:46.52 bitrate=9484.5kbits/s speed=66.1x    frame=51534 fps=3961 q=-1.0 size=  996864kB time=00:14:18.51 bitrate=9512.2kbits/s speed=  66x    frame=53458 fps=3957 q=-1.0 size= 1036544kB time=00:14:50.54 bitrate=9535.1kbits/s speed=65.9x    frame=55395 fps=3954 q=-1.0 size= 1076736kB time=00:15:22.79 bitrate=9558.6kbits/s speed=65.9x    frame=57210 fps=3943 q=-1.0 size= 1114368kB time=00:15:53.01 bitrate=9578.9kbits/s speed=65.7x    frame=58913 fps=3925 q=-1.0 size= 1149696kB time=00:16:21.40 bitrate=9596.8kbits/s speed=65.4x    frame=60813 fps=3921 q=-1.0 size= 1189376kB time=00:16:53.04 bitrate=9617.9kbits/s speed=65.3x    frame=62598 fps=3910 q=-1.0 size= 1226240kB time=00:17:22.80 bitrate=9633.0kbits/s speed=65.1x    frame=64525 fps=3908 q=-1.0 size= 1266432kB time=00:17:54.87 bitrate=9651.9kbits/s speed=65.1x    frame=66349 fps=3901 q=-1.0 size= 1304320kB time=00:18:25.26 bitrate=9667.4kbits/s speed=  65x    frame=68178 fps=3894 q=-1.0 size= 1342464kB time=00:18:55.75 bitrate=9683.0kbits/s speed=64.9x    frame=70148 fps=3895 q=-1.0 size= 1383424kB time=00:19:28.52 bitrate=9698.5kbits/s speed=64.9x    frame=72314 fps=3907 q=-1.0 size= 1423360kB time=00:20:04.59 bitrate=9679.7kbits/s speed=65.1x    frame=74592 fps=3924 q=-1.0 size= 1460736kB time=00:20:42.55 bitrate=9630.5kbits/s speed=65.4x    frame=76502 fps=3921 q=-1.0 size= 1500416kB time=00:21:14.34 bitrate=9645.3kbits/s speed=65.3x    frame=78413 fps=3918 q=-1.0 size= 1540352kB time=00:21:46.14 bitrate=9660.9kbits/s speed=65.3x    frame=80326 fps=3916 q=-1.0 size= 1580032kB time=00:22:18.03 bitrate=9673.6kbits/s speed=65.2x    frame=81865 fps=3896 q=-1.0 size= 1612032kB time=00:22:43.64 bitrate=9684.2kbits/s speed=64.9x    frame=83392 fps=3877 q=-1.0 size= 1643520kB time=00:23:09.10 bitrate=9692.4kbits/s speed=64.6x    frame=85318 fps=3876 q=-1.0 size= 1683712kB time=00:23:41.20 bitrate=9705.1kbits/s speed=64.6x    frame=87245 fps=3875 q=-1.0 size= 1723648kB time=00:24:13.28 bitrate=9716.0kbits/s speed=64.6x    frame=89056 fps=3870 q=-1.0 size= 1761280kB time=00:24:43.45 bitrate=9726.2kbits/s speed=64.5x    frame=91044 fps=3872 q=-1.0 size= 1802752kB time=00:25:16.55 bitrate=9737.9kbits/s speed=64.5x    frame=92997 fps=3873 q=-1.0 size= 1843200kB time=00:25:49.10 bitrate=9747.2kbits/s speed=64.5x    frame=94808 fps=3868 q=-1.0 size= 1881088kB time=00:26:19.25 bitrate=9757.7kbits/s speed=64.4x    frame=97023 fps=3879 q=-1.0 size= 1922048kB time=00:26:56.12 bitrate=9742.7kbits/s speed=64.6x    frame=98967 fps=3879 q=-1.0 size= 1954048kB time=00:27:28.53 bitrate=9710.2kbits/s speed=64.6x    frame=100874 fps=3878 q=-1.0 size= 1993728kB time=00:28:00.30 bitrate=9720.0kbits/s speed=64.6x    frame=102858 fps=3879 q=-1.0 size= 2034688kB time=00:28:33.35 bitrate=9728.4kbits/s speed=64.6x    frame=104634 fps=3873 q=-1.0 size= 2071552kB time=00:29:02.92 bitrate=9736.6kbits/s speed=64.5x    frame=106543 fps=3872 q=-1.0 size= 2111488kB time=00:29:34.73 bitrate=9746.4kbits/s speed=64.5x    frame=108553 fps=3875 q=-1.0 size= 2153216kB time=00:30:08.19 bitrate=9755.1kbits/s speed=64.5x    frame=110250 fps=3866 q=-1.0 size= 2188544kB time=00:30:36.46 bitrate=9762.5kbits/s speed=64.4x    frame=112296 fps=3870 q=-1.0 size= 2230784kB time=00:31:10.53 bitrate=9769.7kbits/s speed=64.5x    frame=114194 fps=3869 q=-1.0 size= 2270464kB time=00:31:42.15 bitrate=9778.2kbits/s speed=64.4x    frame=116082 fps=3867 q=-1.0 size= 2309632kB time=00:32:13.61 bitrate=9785.0kbits/s speed=64.4x    frame=118113 fps=3870 q=-1.0 size= 2351872kB time=00:32:47.46 bitrate=9792.6kbits/s speed=64.5x    frame=119972 fps=3867 q=-1.0 size= 2390528kB time=00:33:18.42 bitrate=9799.3kbits/s speed=64.4x    frame=121966 fps=3869 q=-1.0 size= 2432000kB time=00:33:51.65 bitrate=9806.3kbits/s speed=64.5x    frame=123840 fps=3867 q=-1.0 size= 2470912kB time=00:34:22.84 bitrate=9812.5kbits/s speed=64.4x    frame=125569 fps=3861 q=-1.0 size= 2507008kB time=00:34:51.67 bitrate=9818.6kbits/s speed=64.3x    frame=127590 fps=3864 q=-1.0 size= 2548736kB time=00:35:25.34 bitrate=9824.0kbits/s speed=64.4x    frame=129658 fps=3868 q=-1.0 size= 2591488kB time=00:35:59.77 bitrate=9829.5kbits/s speed=64.4x    frame=131441 fps=3863 q=-1.0 size= 2628608kB time=00:36:29.48 bitrate=9835.0kbits/s speed=64.4x    frame=133571 fps=3869 q=-1.0 size= 2667264kB time=00:37:04.97 bitrate=9820.4kbits/s speed=64.4x    frame=135912 fps=3881 q=-1.0 size= 2705920kB time=00:37:43.94 bitrate=9791.3kbits/s speed=64.6x    frame=137706 fps=3876 q=-1.0 size= 2743296kB time=00:38:13.86 bitrate=9797.1kbits/s speed=64.6x    frame=139758 fps=3880 q=-1.0 size= 2785792kB time=00:38:48.03 bitrate=9802.8kbits/s speed=64.6x    frame=141542 fps=3875 q=-1.0 size= 2822912kB time=00:39:17.75 bitrate=9808.2kbits/s speed=64.6x    frame=143516 fps=3876 q=-1.0 size= 2863872kB time=00:39:50.63 bitrate=9813.6kbits/s speed=64.6x    frame=145523 fps=3878 q=-1.0 size= 2905600kB time=00:40:24.04 bitrate=9819.4kbits/s speed=64.6x    frame=147346 fps=3875 q=-1.0 size= 2943744kB time=00:40:54.37 bitrate=9825.4kbits/s speed=64.5x    frame=149412 fps=3878 q=-1.0 size= 2986496kB time=00:41:28.77 bitrate=9830.3kbits/s speed=64.6x    frame=151412 fps=3880 q=-1.0 size= 3027968kB time=00:42:02.09 bitrate=9835.1kbits/s speed=64.6x    frame=153486 fps=3883 q=-1.0 size= 3070976kB time=00:42:36.62 bitrate=9840.1kbits/s speed=64.7x    frame=155529 fps=3885 q=-1.0 size= 3113472kB time=00:43:10.62 bitrate=9845.3kbits/s speed=64.7x    frame=157398 fps=3884 q=-1.0 size= 3152384kB time=00:43:41.75 bitrate=9850.0kbits/s speed=64.7x    frame=159328 fps=3883 q=-1.0 size= 3192832kB time=00:44:13.93 bitrate=9855.4kbits/s speed=64.7x    frame=161375 fps=3886 q=-1.0 size= 3234816kB time=00:44:48.03 bitrate=9858.4kbits/s speed=64.7x    frame=163380 fps=3887 q=-1.0 size= 3272192kB time=00:45:21.42 bitrate=9849.9kbits/s speed=64.8x    frame=165402 fps=3889 q=-1.0 size= 3313920kB time=00:45:55.07 bitrate=9853.7kbits/s speed=64.8x    frame=167983 fps=3904 q=-1.0 size= 3356160kB time=00:46:38.10 bitrate=9825.8kbits/s speed=  65x    frame=169963 fps=3904 q=-1.0 size= 3391488kB time=00:47:11.09 bitrate=9813.6kbits/s speed=  65x    frame=171910 fps=3904 q=-1.0 size= 3431936kB time=00:47:43.52 bitrate=9818.1kbits/s speed=  65x    frame=173257 fps=3890 q=-1.0 size= 3459840kB time=00:48:05.95 bitrate=9821.0kbits/s speed=64.8x    frame=175067 fps=3887 q=-1.0 size= 3497472kB time=00:48:36.07 bitrate=9825.3kbits/s speed=64.8x    frame=176928 fps=3886 q=-1.0 size= 3536128kB time=00:49:07.08 bitrate=9829.4kbits/s speed=64.7x    frame=178699 fps=3882 q=-1.0 size= 3572992kB time=00:49:36.56 bitrate=9833.5kbits/s speed=64.7x    frame=180586 fps=3881 q=-1.0 size= 3612160kB time=00:50:07.99 bitrate=9837.4kbits/s speed=64.6x    frame=182236 fps=3874 q=-1.0 size= 3646464kB time=00:50:35.47 bitrate=9840.9kbits/s speed=64.5x    frame=183889 fps=3868 q=-1.0 size= 3680768kB time=00:51:02.98 bitrate=9844.3kbits/s speed=64.4x    frame=185586 fps=3863 q=-1.0 size= 3716096kB time=00:51:31.26 bitrate=9847.8kbits/s speed=64.4x    frame=187423 fps=3861 q=-1.0 size= 3753984kB time=00:52:01.85 bitrate=9850.8kbits/s speed=64.3x    frame=189248 fps=3859 q=-1.0 size= 3792128kB time=00:52:32.23 bitrate=9854.9kbits/s speed=64.3x    frame=191370 fps=3863 q=-1.0 size= 3832576kB time=00:53:07.59 bitrate=9849.6kbits/s speed=64.3x    frame=193348 fps=3864 q=-1.0 size= 3873792kB time=00:53:40.53 bitrate=9853.7kbits/s speed=64.4x    frame=195731 fps=3873 q=-1.0 size= 3908864kB time=00:54:20.25 bitrate=9821.7kbits/s speed=64.5x    frame=197517 fps=3870 q=-1.0 size= 3945984kB time=00:54:50.01 bitrate=9825.4kbits/s speed=64.5x    frame=199249 fps=3866 q=-1.0 size= 3981824kB time=00:55:18.86 bitrate=9828.4kbits/s speed=64.4x    frame=201176 fps=3866 q=-1.0 size= 4022272kB time=00:55:50.95 bitrate=9833.1kbits/s speed=64.4x    frame=203151 fps=3866 q=-1.0 size= 4063232kB time=00:56:23.86 bitrate=9836.7kbits/s speed=64.4x    frame=204959 fps=3864 q=-1.0 size= 4100608kB time=00:56:53.96 bitrate=9839.6kbits/s speed=64.4x    frame=206999 fps=3866 q=-1.0 size= 4143104kB time=00:57:27.94 bitrate=9843.6kbits/s speed=64.4x    frame=208941 fps=3866 q=-1.0 size= 4183296kB time=00:58:00.26 bitrate=9846.8kbits/s speed=64.4x    frame=210952 fps=3868 q=-1.0 size= 4225024kB time=00:58:33.75 bitrate=9850.3kbits/s speed=64.4x    frame=212931 fps=3868 q=-1.0 size= 4266240kB time=00:59:06.74 bitrate=9853.8kbits/s speed=64.4x    frame=214712 fps=3866 q=-1.0 size= 4303360kB time=00:59:36.41 bitrate=9857.1kbits/s speed=64.4x    frame=216699 fps=3867 q=-1.0 size= 4344832kB time=01:00:09.50 bitrate=9860.9kbits/s speed=64.4x    frame=218941 fps=3872 q=-1.0 size= 4385536kB time=01:00:46.86 bitrate=9851.3kbits/s speed=64.5x    frame=220794 fps=3870 q=-1.0 size= 4423424kB time=01:01:17.72 bitrate=9853.0kbits/s speed=64.5x    frame=223090 fps=3877 q=-1.0 size= 4462336kB time=01:01:55.97 bitrate=9837.4kbits/s speed=64.6x    frame=225069 fps=3877 q=-1.0 size= 4503296kB time=01:02:28.92 bitrate=9840.4kbits/s speed=64.6x    frame=226957 fps=3876 q=-1.0 size= 4542720kB time=01:03:00.37 bitrate=9844.0kbits/s speed=64.6x    frame=228937 fps=3877 q=-1.0 size= 4583680kB time=01:03:33.36 bitrate=9846.8kbits/s speed=64.6x    frame=230811 fps=3876 q=-1.0 size= 4622592kB time=01:04:04.58 bitrate=9849.8kbits/s speed=64.6x    frame=232726 fps=3876 q=-1.0 size= 4662528kB time=01:04:36.45 bitrate=9853.2kbits/s speed=64.6x    frame=234724 fps=3877 q=-1.0 size= 4704000kB time=01:05:09.72 bitrate=9856.2kbits/s speed=64.6x    frame=236531 fps=3874 q=-1.0 size= 4741376kB time=01:05:39.84 bitrate=9858.6kbits/s speed=64.5x    frame=238513 fps=3875 q=-1.0 size= 4782592kB time=01:06:12.84 bitrate=9861.7kbits/s speed=64.5x    frame=240474 fps=3876 q=-1.0 size= 4823552kB time=01:06:45.50 bitrate=9865.1kbits/s speed=64.6x    frame=242392 fps=3875 q=-1.0 size= 4863488kB time=01:07:17.47 bitrate=9868.0kbits/s speed=64.5x    frame=244370 fps=3876 q=-1.0 size= 4904704kB time=01:07:50.40 bitrate=9871.1kbits/s speed=64.6x    frame=246330 fps=3876 q=-1.0 size= 4945152kB time=01:08:23.05 bitrate=9873.3kbits/s speed=64.6x    frame=248129 fps=3874 q=-1.0 size= 4982528kB time=01:08:53.03 bitrate=9875.8kbits/s speed=64.5x    frame=250123 fps=3875 q=-1.0 size= 5024000kB time=01:09:26.25 bitrate=9878.6kbits/s speed=64.5x    frame=251985 fps=3874 q=-1.0 size= 5062656kB time=01:09:57.25 bitrate=9881.1kbits/s speed=64.5x    frame=253810 fps=3872 q=-1.0 size= 5100544kB time=01:10:27.67 bitrate=9883.4kbits/s speed=64.5x    frame=255821 fps=3873 q=-1.0 size= 5142272kB time=01:11:01.14 bitrate=9885.9kbits/s speed=64.5x    frame=258007 fps=3877 q=-1.0 size= 5181440kB time=01:11:37.57 bitrate=9876.8kbits/s speed=64.6x    frame=260024 fps=3878 q=-1.0 size= 5223168kB time=01:12:11.17 bitrate=9879.1kbits/s speed=64.6x    frame=262326 fps=3883 q=-1.0 size= 5263872kB time=01:12:49.48 bitrate=9868.8kbits/s speed=64.7x    frame=263729 fps=3875 q=-1.0 size= 5292800kB time=01:13:12.82 bitrate=9870.3kbits/s speed=64.5x    frame=265635 fps=3875 q=-1.0 size= 5332480kB time=01:13:44.57 bitrate=9873.0kbits/s speed=64.5x    frame=267533 fps=3874 q=-1.0 size= 5371648kB time=01:14:16.21 bitrate=9874.9kbits/s speed=64.5x    frame=269478 fps=3874 q=-1.0 size= 5412096kB time=01:14:48.63 bitrate=9877.4kbits/s speed=64.5x    frame=271460 fps=3875 q=-1.0 size= 5453312kB time=01:15:21.63 bitrate=9879.9kbits/s speed=64.5x    frame=273294 fps=3874 q=-1.0 size= 5491456kB time=01:15:52.19 bitrate=9882.3kbits/s speed=64.5x    frame=275140 fps=3872 q=-1.0 size= 5530112kB time=01:16:22.91 bitrate=9885.1kbits/s speed=64.5x    frame=277126 fps=3873 q=-1.0 size= 5571072kB time=01:16:56.02 bitrate=9886.9kbits/s speed=64.5x    frame=278874 fps=3870 q=-1.0 size= 5607424kB time=01:17:25.13 bitrate=9889.1kbits/s speed=64.5x    frame=280776 fps=3870 q=-1.0 size= 5646848kB time=01:17:56.83 bitrate=9891.1kbits/s speed=64.5x    frame=282817 fps=3871 q=-1.0 size= 5689344kB time=01:18:30.83 bitrate=9893.6kbits/s speed=64.5x    frame=284525 fps=3868 q=-1.0 size= 5724928kB time=01:18:59.25 bitrate=9895.8kbits/s speed=64.4x    frame=286587 fps=3870 q=-1.0 size= 5767680kB time=01:19:33.59 bitrate=9898.0kbits/s speed=64.5x    frame=288534 fps=3870 q=-1.0 size= 5808640kB time=01:20:06.01 bitrate=9901.0kbits/s speed=64.5x    frame=292969 fps=3903 q=-1.0 size= 5848064kB time=01:21:19.90 bitrate=9817.3kbits/s speed=  65x    frame=296622 fps=3926 q=-1.0 size= 5888000kB time=01:22:20.77 bitrate=9762.5kbits/s speed=65.4x    frame=299479 fps=3938 q=-1.0 size= 5924864kB time=01:23:08.36 bitrate=9729.9kbits/s speed=65.6x    frame=302063 fps=3946 q=-1.0 size= 5965824kB time=01:23:51.43 bitrate=9713.3kbits/s speed=65.7x    frame=304520 fps=3952 q=-1.0 size= 6007808kB time=01:24:32.36 bitrate=9702.8kbits/s speed=65.8x    frame=307170 fps=3961 q=-1.0 size= 6043648kB time=01:25:16.50 bitrate=9676.4kbits/s speed=  66x    frame=310062 fps=3972 q=-1.0 size= 6079744kB time=01:26:04.71 bitrate=9643.4kbits/s speed=66.2x    frame=312673 fps=3980 q=-1.0 size= 6118400kB time=01:26:48.21 bitrate=9623.6kbits/s speed=66.3x    frame=314669 fps=3980 q=-1.0 size= 6155776kB time=01:27:21.46 bitrate=9621.0kbits/s speed=66.3x    frame=317797 fps=3995 q=-1.0 size= 6196992kB time=01:28:13.58 bitrate=9590.0kbits/s speed=66.5x    frame=320105 fps=3998 q=-1.0 size= 6236928kB time=01:28:52.03 bitrate=9582.3kbits/s speed=66.6x    frame=322687 fps=4006 q=-1.0 size= 6275840kB time=01:29:35.01 bitrate=9564.9kbits/s speed=66.7x    frame=325014 fps=4010 q=-1.0 size= 6318080kB time=01:30:13.79 bitrate=9560.3kbits/s speed=66.8x    frame=327971 fps=4021 q=-1.0 size= 6354176kB time=01:31:03.03 bitrate=9528.3kbits/s speed=  67x    frame=330313 fps=4025 q=-1.0 size= 6390272kB time=01:31:42.05 bitrate=9514.5kbits/s speed=  67x    frame=332534 fps=4028 q=-1.0 size= 6428416kB time=01:32:19.06 bitrate=9507.3kbits/s speed=67.1x    frame=334459 fps=4027 q=-1.0 size= 6467072kB time=01:32:51.14 bitrate=9509.4kbits/s speed=67.1x    frame=337096 fps=4034 q=-1.0 size= 6508032kB time=01:33:35.06 bitrate=9494.8kbits/s speed=67.2x    frame=339328 fps=4037 q=-1.0 size= 6547968kB time=01:34:12.27 bitrate=9490.2kbits/s speed=67.2x    frame=342019 fps=4045 q=-1.0 size= 6588160kB time=01:34:57.10 bitrate=9473.3kbits/s speed=67.4x    frame=344296 fps=4048 q=-1.0 size= 6628864kB time=01:35:35.04 bitrate=9468.7kbits/s speed=67.4x    frame=346571 fps=4051 q=-1.0 size= 6663680kB time=01:36:12.95 bitrate=9456.0kbits/s speed=67.5x    frame=349480 fps=4061 q=-1.0 size= 6701056kB time=01:37:01.41 bitrate=9429.8kbits/s speed=67.6x    frame=355953 fps=4112 q=-1.0 size= 6739200kB time=01:38:49.18 bitrate=9311.2kbits/s speed=68.5x    frame=360146 fps=4137 q=-1.0 size= 6776320kB time=01:39:59.01 bitrate=9253.5kbits/s speed=68.9x    frame=362184 fps=4136 q=-1.0 size= 6816256kB time=01:40:32.94 bitrate=9255.6kbits/s speed=68.9x    frame=364704 fps=4141 q=-1.0 size= 6855168kB time=01:41:14.95 bitrate=9244.1kbits/s speed=  69x    frame=367672 fps=4151 q=-1.0 size= 6889472kB time=01:42:04.40 bitrate=9215.4kbits/s speed=69.1x    frame=370450 fps=4159 q=-1.0 size= 6931968kB time=01:42:50.65 bitrate=9202.7kbits/s speed=69.3x    frame=372918 fps=4164 q=-1.0 size= 6970624kB time=01:43:31.80 bitrate=9192.7kbits/s speed=69.4x    frame=375255 fps=4166 q=-1.0 size= 7011072kB time=01:44:10.74 bitrate=9188.5kbits/s speed=69.4x    frame=377770 fps=4171 q=-1.0 size= 7051008kB time=01:44:52.63 bitrate=9179.3kbits/s speed=69.5x    frame=379806 fps=4171 q=-1.0 size= 7088640kB time=01:45:26.52 bitrate=9178.8kbits/s speed=69.5x    frame=382817 fps=4181 q=-1.0 size= 7128320kB time=01:46:16.69 bitrate=9157.6kbits/s speed=69.6x    frame=384366 fps=4175 q=-1.0 size= 7157248kB time=01:46:42.47 bitrate=9157.7kbits/s speed=69.5x    frame=386701 fps=4177 q=-1.0 size= 7188224kB time=01:47:21.39 bitrate=9141.8kbits/s speed=69.6x    frame=389906 fps=4189 q=-1.0 size= 7225856kB time=01:48:14.77 bitrate=9114.1kbits/s speed=69.8x    frame=393240 fps=4203 q=-1.0 size= 7262464kB time=01:49:10.35 bitrate=9082.6kbits/s speed=  70x    frame=395226 fps=4201 q=-1.0 size= 7299328kB time=01:49:43.41 bitrate=9082.8kbits/s speed=  70x    frame=396997 fps=4198 q=-1.0 size= 7335680kB time=01:50:12.95 bitrate=9087.3kbits/s speed=69.9x    frame=399812 fps=4205 q=-1.0 size= 7374336kB time=01:50:59.83 bitrate=9070.9kbits/s speed=70.1x    frame=401801 fps=4204 q=-1.0 size= 7410176kB time=01:51:32.97 bitrate=9069.8kbits/s speed=  70x    frame=404319 fps=4209 q=-1.0 size= 7451648kB time=01:52:14.88 bitrate=9063.8kbits/s speed=70.1x    frame=406254 fps=4207 q=-1.0 size= 7488000kB time=01:52:47.15 bitrate=9064.6kbits/s speed=70.1x    frame=408415 fps=4207 q=-1.0 size= 7528704kB time=01:53:23.11 bitrate=9065.7kbits/s speed=70.1x    frame=411226 fps=4215 q=-1.0 size= 7569408kB time=01:54:09.94 bitrate=9052.4kbits/s speed=70.2x    frame=413193 fps=4213 q=-1.0 size= 7607040kB time=01:54:42.70 bitrate=9054.1kbits/s speed=70.2x    frame=415268 fps=4213 q=-1.0 size= 7648000kB time=01:55:17.28 bitrate=9057.4kbits/s speed=70.2x    frame=417261 fps=4212 q=-1.0 size= 7688192kB time=01:55:50.46 bitrate=9061.5kbits/s speed=70.2x    frame=419235 fps=4210 q=-1.0 size= 7727616kB time=01:56:23.36 bitrate=9065.1kbits/s speed=70.1x    frame=421902 fps=4216 q=-1.0 size= 7768832kB time=01:57:07.82 bitrate=9055.8kbits/s speed=70.2x    frame=424324 fps=4219 q=-1.0 size= 7810048kB time=01:57:48.14 bitrate=9051.9kbits/s speed=70.3x    frame=426504 fps=4220 q=-1.0 size= 7851776kB time=01:58:24.44 bitrate=9053.7kbits/s speed=70.3x    frame=428552 fps=4219 q=-1.0 size= 7893248kB time=01:58:58.55 bitrate=9058.1kbits/s speed=70.3x    frame=430510 fps=4218 q=-1.0 size= 7930112kB time=01:59:31.18 bitrate=9059.0kbits/s speed=70.3x    frame=432545 fps=4217 q=-1.0 size= 7972096kB time=02:00:05.09 bitrate=9064.1kbits/s speed=70.2x    frame=435169 fps=4222 q=-1.0 size= 8012544kB time=02:00:48.81 bitrate=9055.1kbits/s speed=70.3x    frame=437012 fps=4219 q=-1.0 size= 8048896kB time=02:01:19.50 bitrate=9057.8kbits/s speed=70.3x    frame=440168 fps=4229 q=-1.0 size= 8090624kB time=02:02:12.05 bitrate=9039.5kbits/s speed=70.4x    frame=442660 fps=4233 q=-1.0 size= 8130560kB time=02:02:53.55 bitrate=9033.0kbits/s speed=70.5x    frame=445501 fps=4240 q=-1.0 size= 8173056kB time=02:03:40.90 bitrate=9022.3kbits/s speed=70.6x    frame=448068 fps=4244 q=-1.0 size= 8215040kB time=02:04:23.66 bitrate=9016.7kbits/s speed=70.7x    frame=450019 fps=4242 q=-1.0 size= 8253184kB time=02:04:56.13 bitrate=9019.3kbits/s speed=70.7x    frame=452026 fps=4241 q=-1.0 size= 8293888kB time=02:05:29.58 bitrate=9023.5kbits/s speed=70.6x    frame=454153 fps=4241 q=-1.0 size= 8335360kB time=02:06:05.04 bitrate=9026.2kbits/s speed=70.6x    frame=456148 fps=4240 q=-1.0 size= 8375808kB time=02:06:38.27 bitrate=9030.3kbits/s speed=70.6x    frame=458408 fps=4241 q=-1.0 size= 8418304kB time=02:07:15.90 bitrate=9031.4kbits/s speed=70.7x    frame=460443 fps=4241 q=-1.0 size= 8459520kB time=02:07:49.79 bitrate=9035.5kbits/s speed=70.6x    frame=462340 fps=4239 q=-1.0 size= 8497664kB time=02:08:21.41 bitrate=9039.0kbits/s speed=70.6x    frame=464808 fps=4242 q=-1.0 size= 8540160kB time=02:09:02.50 bitrate=9036.0kbits/s speed=70.7x    frame=467183 fps=4244 q=-1.0 size= 8581120kB time=02:09:42.06 bitrate=9033.1kbits/s speed=70.7x    frame=469509 fps=4246 q=-1.0 size= 8622848kB time=02:10:20.79 bitrate=9032.1kbits/s speed=70.7x    frame=472069 fps=4250 q=-1.0 size= 8666368kB time=02:11:03.42 bitrate=9028.5kbits/s speed=70.8x    frame=474226 fps=4250 q=-1.0 size= 8705280kB time=02:11:39.32 bitrate=9027.8kbits/s speed=70.8x    frame=476543 fps=4252 q=-1.0 size= 8747520kB time=02:12:17.88 bitrate=9027.6kbits/s speed=70.8x    frame=478551 fps=4251 q=-1.0 size= 8786688kB time=02:12:51.37 bitrate=9029.9kbits/s speed=70.8x    frame=480476 fps=4249 q=-1.0 size= 8825600kB time=02:13:23.42 bitrate=9033.5kbits/s speed=70.8x    frame=482702 fps=4250 q=-1.0 size= 8868864kB time=02:14:00.47 bitrate=9036.0kbits/s speed=70.8x    frame=486017 fps=4260 q=-1.0 size= 8909824kB time=02:14:55.71 bitrate=9015.8kbits/s speed=  71x    frame=489244 fps=4270 q=-1.0 size= 8948992kB time=02:15:49.46 bitrate=8995.7kbits/s speed=71.1x    frame=493871 fps=4291 q=-1.0 size= 8988672kB time=02:17:06.53 bitrate=8950.9kbits/s speed=71.5x    frame=496259 fps=4293 q=-1.0 size= 9026560kB time=02:17:46.29 bitrate=8945.4kbits/s speed=71.5x    frame=498461 fps=4294 q=-1.0 size= 9066240kB time=02:18:23.01 bitrate=8945.0kbits/s speed=71.5x    frame=500383 fps=4292 q=-1.0 size= 9103360kB time=02:18:55.01 bitrate=8947.2kbits/s speed=71.5x    frame=501904 fps=4287 q=-1.0 size= 9133056kB time=02:19:20.34 bitrate=8949.1kbits/s speed=71.4x    frame=504019 fps=4286 q=-1.0 size= 9175040kB time=02:19:55.59 bitrate=8952.5kbits/s speed=71.4x    frame=506074 fps=4286 q=-1.0 size= 9217792kB time=02:20:29.79 bitrate=8957.8kbits/s speed=71.4x    frame=509339 fps=4295 q=-1.0 size= 9253376kB time=02:21:24.21 bitrate=8934.7kbits/s speed=71.5x    frame=512203 fps=4301 q=-1.0 size= 9296384kB time=02:22:11.94 bitrate=8926.0kbits/s speed=71.6x    frame=514684 fps=4304 q=-1.0 size= 9337344kB time=02:22:53.27 bitrate=8922.1kbits/s speed=71.7x    frame=518061 fps=4314 q=-1.0 size= 9376000kB time=02:23:49.53 bitrate=8900.6kbits/s speed=71.9x    frame=520292 fps=4315 q=-1.0 size= 9416192kB time=02:24:26.69 bitrate=8900.4kbits/s speed=71.9x    frame=522460 fps=4315 q=-1.0 size= 9454336kB time=02:25:02.83 bitrate=8899.4kbits/s speed=71.9x    frame=524791 fps=4316 q=-1.0 size= 9494272kB time=02:25:41.65 bitrate=8897.3kbits/s speed=71.9x    frame=527441 fps=4320 q=-1.0 size= 9534464kB time=02:26:25.76 bitrate=8890.1kbits/s speed=  72x    frame=529522 fps=4319 q=-1.0 size= 9571584kB time=02:27:00.45 bitrate=8889.6kbits/s speed=  72x    frame=532719 fps=4328 q=-1.0 size= 9611520kB time=02:27:53.70 bitrate=8873.1kbits/s speed=72.1x    frame=535090 fps=4329 q=-1.0 size= 9652992kB time=02:28:33.18 bitrate=8872.0kbits/s speed=72.1x    frame=537382 fps=4331 q=-1.0 size= 9691648kB time=02:29:11.39 bitrate=8869.5kbits/s speed=72.1x    frame=540739 fps=4340 q=-1.0 size= 9733632kB time=02:30:07.27 bitrate=8852.6kbits/s speed=72.3x    frame=543081 fps=4341 q=-1.0 size= 9773568kB time=02:30:46.32 bitrate=8850.6kbits/s speed=72.3x    frame=545435 fps=4343 q=-1.0 size= 9810688kB time=02:31:25.50 bitrate=8845.9kbits/s speed=72.3x    frame=548159 fps=4347 q=-1.0 size= 9852928kB time=02:32:10.88 bitrate=8839.8kbits/s speed=72.4x    frame=550804 fps=4351 q=-1.0 size= 9889536kB time=02:32:54.97 bitrate=8830.0kbits/s speed=72.5x    frame=553286 fps=4353 q=-1.0 size= 9931264kB time=02:33:36.32 bitrate=8827.5kbits/s speed=72.5x    frame=556643 fps=4363 q=-1.0 size= 9968128kB time=02:34:32.23 bitrate=8806.8kbits/s speed=72.7x    frame=558712 fps=4362 q=-1.0 size=10006528kB time=02:35:06.71 bitrate=8808.0kbits/s speed=72.7x    frame=561032 fps=4363 q=-1.0 size=10049280kB time=02:35:45.36 bitrate=8809.0kbits/s speed=72.7x    frame=563508 fps=4365 q=-1.0 size=10088704kB time=02:36:26.62 bitrate=8804.7kbits/s speed=72.7x    frame=565687 fps=4365 q=-1.0 size=10127360kB time=02:37:02.92 bitrate=8804.4kbits/s speed=72.7x    frame=568026 fps=4366 q=-1.0 size=10169344kB time=02:37:41.85 bitrate=8804.5kbits/s speed=72.7x    frame=570107 fps=4365 q=-1.0 size=10207744kB time=02:38:16.52 bitrate=8805.5kbits/s speed=72.7x    frame=573334 fps=4373 q=-1.0 size=10245120kB time=02:39:10.27 bitrate=8788.0kbits/s speed=72.8x    frame=575727 fps=4375 q=-1.0 size=10284800kB time=02:39:50.14 bitrate=8785.4kbits/s speed=72.9x    frame=578071 fps=4376 q=-1.0 size=10323200kB time=02:40:29.17 bitrate=8782.4kbits/s speed=72.9x    frame=580301 fps=4376 q=-1.0 size=10364416kB time=02:41:06.34 bitrate=8783.6kbits/s speed=72.9x    frame=582323 fps=4375 q=-1.0 size=10404096kB time=02:41:40.03 bitrate=8786.6kbits/s speed=72.9x    frame=584296 fps=4373 q=-1.0 size=10442240kB time=02:42:12.90 bitrate=8789.0kbits/s speed=72.8x    frame=586752 fps=4375 q=-1.0 size=10482176kB time=02:42:53.82 bitrate=8785.7kbits/s speed=72.9x    frame=589471 fps=4379 q=-1.0 size=10519552kB time=02:43:39.12 bitrate=8776.4kbits/s speed=72.9x    frame=592187 fps=4383 q=-1.0 size=10559744kB time=02:44:24.38 bitrate=8769.5kbits/s speed=  73x    frame=594460 fps=4384 q=-1.0 size=10598656kB time=02:45:02.26 bitrate=8768.1kbits/s speed=  73x    frame=596849 fps=4385 q=-1.0 size=10638080kB time=02:45:42.03 bitrate=8765.5kbits/s speed=  73x    frame=600534 fps=4396 q=-1.0 size=10677248kB time=02:46:43.43 bitrate=8743.8kbits/s speed=73.2x    frame=603206 fps=4400 q=-1.0 size=10716160kB time=02:47:27.98 bitrate=8736.8kbits/s speed=73.3x    frame=605734 fps=4402 q=-1.0 size=10755840kB time=02:48:10.10 bitrate=8732.5kbits/s speed=73.3x    frame=609738 fps=4415 q=-1.0 size=10794240kB time=02:49:16.81 bitrate=8706.1kbits/s speed=73.5x    frame=613567 fps=4427 q=-1.0 size=10831616kB time=02:50:20.58 bitrate=8681.8kbits/s speed=73.7x    frame=615919 fps=4428 q=-1.0 size=10863616kB time=02:50:59.79 bitrate=8674.1kbits/s speed=73.8x    frame=618868 fps=4433 q=-1.0 size=10900736kB time=02:51:48.93 bitrate=8662.3kbits/s speed=73.8x    frame=621461 fps=4436 q=-1.0 size=10936832kB time=02:52:32.12 bitrate=8654.7kbits/s speed=73.9x    frame=624287 fps=4440 q=-1.0 size=10971648kB time=02:53:19.19 bitrate=8643.0kbits/s speed=  74x    frame=626979 fps=4443 q=-1.0 size=11007488kB time=02:54:04.04 bitrate=8633.9kbits/s speed=  74x    frame=629587 fps=4446 q=-1.0 size=11042816kB time=02:54:47.53 bitrate=8625.7kbits/s speed=74.1x    frame=632500 fps=4451 q=-1.0 size=11074560kB time=02:55:36.09 bitrate=8610.7kbits/s speed=74.1x    frame=634331 fps=4448 q=-1.0 size=11103232kB time=02:56:06.58 bitrate=8608.1kbits/s speed=74.1x    frame=637277 fps=4453 q=-1.0 size=11139328kB time=02:56:55.65 bitrate=8596.1kbits/s speed=74.2x    frame=639235 fps=4451 q=-1.0 size=11173632kB time=02:57:28.23 bitrate=8596.2kbits/s speed=74.1x    frame=642144 fps=4456 q=-1.0 size=11209984kB time=02:58:16.68 bitrate=8585.1kbits/s speed=74.2x    frame=645441 fps=4463 q=-1.0 size=11244288kB time=02:59:11.60 bitrate=8567.4kbits/s speed=74.3x    frame=651707 fps=4491 q=-1.0 size=11278336kB time=03:00:55.93 bitrate=8510.8kbits/s speed=74.8x    frame=653620 fps=4489 q=-1.0 size=11309056kB time=03:01:27.81 bitrate=8508.9kbits/s speed=74.8x    frame=655565 fps=4487 q=-1.0 size=11343104kB time=03:02:00.18 bitrate=8509.3kbits/s speed=74.7x    frame=657846 fps=4487 q=-1.0 size=11377152kB time=03:02:38.17 bitrate=8505.2kbits/s speed=74.7x    frame=661192 fps=4495 q=-1.0 size=11410944kB time=03:03:33.90 bitrate=8487.3kbits/s speed=74.9x    frame=663277 fps=4493 q=-1.0 size=11444992kB time=03:04:08.65 bitrate=8485.9kbits/s speed=74.8x    frame=665262 fps=4492 q=-1.0 size=11479552kB time=03:04:41.74 bitrate=8486.1kbits/s speed=74.8x    frame=667507 fps=4492 q=-1.0 size=11513856kB time=03:05:19.15 bitrate=8482.8kbits/s speed=74.8x    frame=669641 fps=4491 q=-1.0 size=11550464kB time=03:05:54.70 bitrate=8482.6kbits/s speed=74.8x    frame=672200 fps=4493 q=-1.0 size=11586304kB time=03:06:37.31 bitrate=8476.6kbits/s speed=74.8x    frame=674763 fps=4495 q=-1.0 size=11622912kB time=03:07:20.06 bitrate=8471.0kbits/s speed=74.9x    frame=677329 fps=4497 q=-1.0 size=11659008kB time=03:08:02.77 bitrate=8465.2kbits/s speed=74.9x    frame=680096 fps=4500 q=-1.0 size=11695616kB time=03:08:48.89 bitrate=8457.2kbits/s speed=  75x    frame=682610 fps=4502 q=-1.0 size=11733760kB time=03:09:30.76 bitrate=8453.5kbits/s speed=  75x    frame=684645 fps=4501 q=-1.0 size=11774720kB time=03:10:04.67 bitrate=8457.8kbits/s speed=  75x    frame=686811 fps=4500 q=-1.0 size=11817728kB time=03:10:40.77 bitrate=8461.9kbits/s speed=  75x    frame=688974 fps=4500 q=-1.0 size=11859968kB time=03:11:16.81 bitrate=8465.5kbits/s speed=  75x    frame=690870 fps=4497 q=-1.0 size=11897600kB time=03:11:48.39 bitrate=8469.0kbits/s speed=74.9x    frame=692975 fps=4496 q=-1.0 size=11939584kB time=03:12:23.49 bitrate=8473.1kbits/s speed=74.9x    frame=695032 fps=4495 q=-1.0 size=11979520kB time=03:12:57.77 bitrate=8476.3kbits/s speed=74.9x    frame=697188 fps=4495 q=-1.0 size=12020736kB time=03:13:33.67 bitrate=8479.1kbits/s speed=74.9x    frame=699199 fps=4493 q=-1.0 size=12062464kB time=03:14:07.17 bitrate=8484.1kbits/s speed=74.8x    frame=701114 fps=4491 q=-1.0 size=12100608kB time=03:14:39.05 bitrate=8487.7kbits/s speed=74.8x    frame=703958 fps=4495 q=-1.0 size=12142080kB time=03:15:26.44 bitrate=8482.4kbits/s speed=74.9x    frame=706007 fps=4493 q=-1.0 size=12184832kB time=03:16:00.57 bitrate=8487.5kbits/s speed=74.9x    frame=708384 fps=4494 q=-1.0 size=12225792kB time=03:16:40.18 bitrate=8487.5kbits/s speed=74.9x    frame=711318 fps=4499 q=-1.0 size=12267264kB time=03:17:29.05 bitrate=8481.1kbits/s speed=74.9x    frame=713396 fps=4497 q=-1.0 size=12309504kB time=03:18:03.70 bitrate=8485.5kbits/s speed=74.9x    frame=716026 fps=4500 q=-1.0 size=12350720kB time=03:18:47.48 bitrate=8482.7kbits/s speed=  75x    frame=718944 fps=4504 q=-1.0 size=12392960kB time=03:19:36.10 bitrate=8477.1kbits/s speed=  75x    frame=721786 fps=4508 q=-1.0 size=12431104kB time=03:20:23.45 bitrate=8469.7kbits/s speed=75.1x    frame=724317 fps=4509 q=-1.0 size=12471296kB time=03:21:05.63 bitrate=8467.4kbits/s speed=75.1x    frame=726470 fps=4509 q=-1.0 size=12513024kB time=03:21:41.50 bitrate=8470.6kbits/s speed=75.1x    frame=728854 fps=4509 q=-1.0 size=12549120kB time=03:22:21.18 bitrate=8467.2kbits/s speed=75.1x    frame=731863 fps=4514 q=-1.0 size=12585728kB time=03:23:11.32 bitrate=8457.0kbits/s speed=75.2x    frame=734511 fps=4516 q=-1.0 size=12624896kB time=03:23:55.46 bitrate=8452.7kbits/s speed=75.2x    frame=736708 fps=4516 q=-1.0 size=12664832kB time=03:24:32.05 bitrate=8454.2kbits/s speed=75.2x    frame=738780 fps=4515 q=-1.0 size=12706048kB time=03:25:06.59 bitrate=8457.9kbits/s speed=75.2x    frame=740870 fps=4514 q=-1.0 size=12742912kB time=03:25:41.41 bitrate=8458.5kbits/s speed=75.2x    frame=743363 fps=4515 q=-1.0 size=12780800kB time=03:26:22.91 bitrate=8455.2kbits/s speed=75.2x    frame=745300 fps=4513 q=-1.0 size=12818688kB time=03:26:55.21 bitrate=8458.2kbits/s speed=75.2x    frame=747249 fps=4511 q=-1.0 size=12854272kB time=03:27:27.65 bitrate=8459.6kbits/s speed=75.2x    frame=749820 fps=4513 q=-1.0 size=12894208kB time=03:28:10.50 bitrate=8456.8kbits/s speed=75.2x    frame=752750 fps=4517 q=-1.0 size=12931072kB time=03:28:59.32 bitrate=8447.9kbits/s speed=75.3x    frame=755716 fps=4522 q=-1.0 size=12965376kB time=03:29:48.71 bitrate=8437.1kbits/s speed=75.3x    frame=757791 fps=4520 q=-1.0 size=13002752kB time=03:30:23.29 bitrate=8438.3kbits/s speed=75.3x    frame=760290 fps=4522 q=-1.0 size=13040640kB time=03:31:04.95 bitrate=8435.0kbits/s speed=75.3x    frame=763267 fps=4526 q=-1.0 size=13078016kB time=03:31:54.53 bitrate=8426.2kbits/s speed=75.4x    frame=765257 fps=4525 q=-1.0 size=13114112kB time=03:32:27.69 bitrate=8427.5kbits/s speed=75.4x    frame=766903 fps=4521 q=-1.0 size=13148416kB time=03:32:55.11 bitrate=8431.4kbits/s speed=75.3x    frame=770496 fps=4529 q=-1.0 size=13187072kB time=03:33:54.96 bitrate=8416.7kbits/s speed=75.4x    frame=772788 fps=4529 q=-1.0 size=13222656kB time=03:34:33.13 bitrate=8414.4kbits/s speed=75.4x    frame=775023 fps=4529 q=-1.0 size=13250304kB time=03:35:10.36 bitrate=8407.7kbits/s speed=75.4x    frame=777074 fps=4527 q=-1.0 size=13289216kB time=03:35:44.52 bitrate=8410.1kbits/s speed=75.4x    frame=779081 fps=4526 q=-1.0 size=13327104kB time=03:36:17.94 bitrate=8412.4kbits/s speed=75.4x    frame=781262 fps=4525 q=-1.0 size=13367808kB time=03:36:54.27 bitrate=8414.5kbits/s speed=75.4x    frame=783095 fps=4523 q=-1.0 size=13405952kB time=03:37:24.82 bitrate=8418.8kbits/s speed=75.3x    frame=786720 fps=4531 q=-1.0 size=13440000kB time=03:38:25.22 bitrate=8401.3kbits/s speed=75.5x    frame=788650 fps=4529 q=-1.0 size=13476864kB time=03:38:57.37 bitrate=8403.7kbits/s speed=75.4x    frame=790541 fps=4527 q=-1.0 size=13516032kB time=03:39:28.87 bitrate=8408.0kbits/s speed=75.4x    frame=792488 fps=4525 q=-1.0 size=13552384kB time=03:40:01.29 bitrate=8409.9kbits/s speed=75.4x    frame=794301 fps=4522 q=-1.0 size=13590272kB time=03:40:31.53 bitrate=8414.1kbits/s speed=75.3x    frame=796398 fps=4521 q=-1.0 size=13630464kB time=03:41:06.46 bitrate=8416.8kbits/s speed=75.3x    frame=798222 fps=4519 q=-1.0 size=13668352kB time=03:41:36.85 bitrate=8420.9kbits/s speed=75.3x    frame=800922 fps=4521 q=-1.0 size=13706496kB time=03:42:21.81 bitrate=8415.9kbits/s speed=75.3x    frame=803176 fps=4521 q=-1.0 size=13746176kB time=03:42:59.38 bitrate=8416.6kbits/s speed=75.3x    frame=805846 fps=4524 q=-1.0 size=13786624kB time=03:43:43.85 bitrate=8413.4kbits/s speed=75.4x    frame=808989 fps=4529 q=-1.0 size=13822976kB time=03:44:36.25 bitrate=8402.8kbits/s speed=75.4x    frame=811695 fps=4531 q=-1.0 size=13862144kB time=03:45:21.30 bitrate=8398.5kbits/s speed=75.5x    frame=815501 fps=4539 q=-1.0 size=13901056kB time=03:46:24.68 bitrate=8382.8kbits/s speed=75.6x    frame=818452 fps=4543 q=-1.0 size=13942016kB time=03:47:13.88 bitrate=8377.1kbits/s speed=75.7x    frame=820686 fps=4543 q=-1.0 size=13980160kB time=03:47:51.07 bitrate=8377.2kbits/s speed=75.7x    frame=823571 fps=4546 q=-1.0 size=14019584kB time=03:48:39.13 bitrate=8371.4kbits/s speed=75.7x    frame=825668 fps=4545 q=-1.0 size=14059520kB time=03:49:14.08 bitrate=8373.9kbits/s speed=75.7x    frame=827674 fps=4544 q=-1.0 size=14097152kB time=03:49:47.48 bitrate=8376.0kbits/s speed=75.7x    frame=829957 fps=4544 q=-1.0 size=14138880kB time=03:50:25.54 bitrate=8377.7kbits/s speed=75.7x    frame=831992 fps=4543 q=-1.0 size=14177280kB time=03:50:59.44 bitrate=8379.9kbits/s speed=75.7x    frame=834095 fps=4542 q=-1.0 size=14216704kB time=03:51:34.47 bitrate=8382.0kbits/s speed=75.7x    frame=836383 fps=4542 q=-1.0 size=14258176kB time=03:52:12.57 bitrate=8383.4kbits/s speed=75.7x    frame=838266 fps=4540 q=-1.0 size=14294272kB time=03:52:43.92 bitrate=8385.8kbits/s speed=75.6x    frame=840361 fps=4539 q=-1.0 size=14332928kB time=03:53:18.86 bitrate=8387.5kbits/s speed=75.6x    frame=842408 fps=4538 q=-1.0 size=14371072kB time=03:53:52.93 bitrate=8389.4kbits/s speed=75.6x    frame=844445 fps=4536 q=-1.0 size=14407936kB time=03:54:26.88 bitrate=8390.6kbits/s speed=75.6x    frame=846583 fps=4536 q=-1.0 size=14448384kB time=03:55:02.47 bitrate=8392.9kbits/s speed=75.6x    frame=848695 fps=4535 q=-1.0 size=14488320kB time=03:55:37.69 bitrate=8395.2kbits/s speed=75.5x    frame=850932 fps=4535 q=-1.0 size=14526976kB time=03:56:14.96 bitrate=8395.4kbits/s speed=75.5x    frame=853274 fps=4535 q=-1.0 size=14565376kB time=03:56:53.96 bitrate=8394.5kbits/s speed=75.5x    frame=855254 fps=4533 q=-1.0 size=14603776kB time=03:57:26.95 bitrate=8397.2kbits/s speed=75.5x    frame=857463 fps=4533 q=-1.0 size=14646784kB time=03:58:03.79 bitrate=8400.2kbits/s speed=75.5x    frame=859537 fps=4532 q=-1.0 size=14690048kB time=03:58:38.29 bitrate=8404.7kbits/s speed=75.5x    frame=862138 fps=4534 q=-1.0 size=14731776kB time=03:59:21.64 bitrate=8403.1kbits/s speed=75.5x    frame=865028 fps=4537 q=-1.0 size=14772992kB time=04:00:09.82 bitrate=8398.5kbits/s speed=75.6x    frame=867003 fps=4536 q=-1.0 size=14814208kB time=04:00:42.69 bitrate=8402.7kbits/s speed=75.6x    frame=869898 fps=4539 q=-1.0 size=14855680kB time=04:01:30.93 bitrate=8398.2kbits/s speed=75.6x    frame=872145 fps=4539 q=-1.0 size=14897408kB time=04:02:08.36 bitrate=8400.1kbits/s speed=75.6x    frame=874193 fps=4538 q=-1.0 size=14937344kB time=04:02:42.47 bitrate=8402.9kbits/s speed=75.6x    frame=876672 fps=4539 q=-1.0 size=14975744kB time=04:03:23.79 bitrate=8400.6kbits/s speed=75.6x    frame=878906 fps=4538 q=-1.0 size=15019008kB time=04:04:00.99 bitrate=8403.5kbits/s speed=75.6x    frame=880959 fps=4537 q=-1.0 size=15057664kB time=04:04:35.23 bitrate=8405.5kbits/s speed=75.6x    frame=883342 fps=4538 q=-1.0 size=15094784kB time=04:05:14.91 bitrate=8403.5kbits/s speed=75.6x    frame=885590 fps=4538 q=-1.0 size=15135232kB time=04:05:52.36 bitrate=8404.6kbits/s speed=75.6x    frame=887299 fps=4535 q=-1.0 size=15164928kB time=04:06:20.83 bitrate=8404.9kbits/s speed=75.5x    frame=889430 fps=4534 q=-1.0 size=15201536kB time=04:06:56.33 bitrate=8405.0kbits/s speed=75.5x    frame=891736 fps=4534 q=-1.0 size=15242496kB time=04:07:34.76 bitrate=8405.8kbits/s speed=75.5x    frame=894493 fps=4537 q=-1.0 size=15279872kB time=04:08:20.71 bitrate=8400.4kbits/s speed=75.6x    frame=897119 fps=4539 q=-1.0 size=15323648kB time=04:09:04.46 bitrate=8399.9kbits/s speed=75.6x    frame=899323 fps=4538 q=-1.0 size=15363328kB time=04:09:41.17 bitrate=8401.0kbits/s speed=75.6x    frame=901504 fps=4538 q=-1.0 size=15403264kB time=04:10:17.50 bitrate=8402.4kbits/s speed=75.6x    frame=903535 fps=4537 q=-1.0 size=15445248kB time=04:10:51.33 bitrate=8406.4kbits/s speed=75.6x    frame=905569 fps=4536 q=-1.0 size=15483136kB time=04:11:25.21 bitrate=8408.1kbits/s speed=75.6x    frame=907992 fps=4536 q=-1.0 size=15525120kB time=04:12:05.57 bitrate=8408.4kbits/s speed=75.6x    frame=910230 fps=4536 q=-1.0 size=15567104kB time=04:12:42.83 bitrate=8410.4kbits/s speed=75.6x    frame=912090 fps=4534 q=-1.0 size=15604224kB time=04:13:13.83 bitrate=8413.3kbits/s speed=75.5x    frame=915386 fps=4539 q=-1.0 size=15642880kB time=04:14:08.77 bitrate=8403.7kbits/s speed=75.6x    frame=918260 fps=4542 q=-1.0 size=15681792kB time=04:14:56.66 bitrate=8398.3kbits/s speed=75.7x    frame=920964 fps=4544 q=-1.0 size=15722240kB time=04:15:41.70 bitrate=8395.2kbits/s speed=75.7x    frame=923588 fps=4546 q=-1.0 size=15764736kB time=04:16:25.43 bitrate=8394.0kbits/s speed=75.7x    frame=925903 fps=4546 q=-1.0 size=15803136kB time=04:17:03.98 bitrate=8393.4kbits/s speed=75.7x    frame=928521 fps=4548 q=-1.0 size=15845632kB time=04:17:47.58 bitrate=8392.2kbits/s speed=75.8x    frame=931060 fps=4549 q=-1.0 size=15887872kB time=04:18:29.90 bitrate=8391.6kbits/s speed=75.8x    frame=933214 fps=4549 q=-1.0 size=15924224kB time=04:19:05.76 bitrate=8391.4kbits/s speed=75.8x    frame=935329 fps=4548 q=-1.0 size=15962880kB time=04:19:41.00 bitrate=8392.8kbits/s speed=75.8x    frame=937992 fps=4550 q=-1.0 size=16003840kB time=04:20:25.36 bitrate=8390.4kbits/s speed=75.8x    frame=940429 fps=4550 q=-1.0 size=16041984kB time=04:21:05.95 bitrate=8388.6kbits/s speed=75.8x    frame=942744 fps=4551 q=-1.0 size=16083968kB time=04:21:44.56 bitrate=8389.9kbits/s speed=75.8x    frame=945188 fps=4551 q=-1.0 size=16124160kB time=04:22:25.27 bitrate=8389.1kbits/s speed=75.8x    frame=947368 fps=4551 q=-1.0 size=16163584kB time=04:23:01.57 bitrate=8390.3kbits/s speed=75.8x    frame=950812 fps=4557 q=-1.0 size=16200960kB time=04:23:58.98 bitrate=8379.2kbits/s speed=75.9x    frame=953983 fps=4561 q=-1.0 size=16236544kB time=04:24:51.79 bitrate=8369.7kbits/s speed=  76x    frame=956424 fps=4562 q=-1.0 size=16274176kB time=04:25:32.46 bitrate=8367.7kbits/s speed=  76x    frame=959738 fps=4566 q=-1.0 size=16314880kB time=04:26:27.69 bitrate=8359.6kbits/s speed=76.1x    frame=961752 fps=4565 q=-1.0 size=16353280kB time=04:27:01.25 bitrate=8361.8kbits/s speed=  76x    frame=964548 fps=4568 q=-1.0 size=16395264kB time=04:27:47.82 bitrate=8358.9kbits/s speed=76.1x    frame=967212 fps=4569 q=-1.0 size=16435712kB time=04:28:32.20 bitrate=8356.5kbits/s speed=76.1x    frame=969818 fps=4571 q=-1.0 size=16474624kB time=04:29:15.59 bitrate=8353.8kbits/s speed=76.1x    frame=972429 fps=4572 q=-1.0 size=16517376kB time=04:29:59.10 bitrate=8353.0kbits/s speed=76.2x    frame=974769 fps=4573 q=-1.0 size=16556032kB time=04:30:38.07 bitrate=8352.4kbits/s speed=76.2x    frame=977594 fps=4575 q=-1.0 size=16599040kB time=04:31:25.12 bitrate=8349.9kbits/s speed=76.2x    frame=980413 fps=4578 q=-1.0 size=16641024kB time=04:32:12.10 bitrate=8347.0kbits/s speed=76.3x    frame=982417 fps=4576 q=-1.0 size=16678912kB time=04:32:45.46 bitrate=8348.9kbits/s speed=76.2x    frame=984810 fps=4577 q=-1.0 size=16720640kB time=04:33:25.34 bitrate=8349.4kbits/s speed=76.2x    frame=986817 fps=4575 q=-1.0 size=16758016kB time=04:33:58.77 bitrate=8351.1kbits/s speed=76.2x    frame=988835 fps=4574 q=-1.0 size=16795648kB time=04:34:32.36 bitrate=8352.8kbits/s speed=76.2x    frame=991201 fps=4575 q=-1.0 size=16835072kB time=04:35:11.81 bitrate=8352.4kbits/s speed=76.2x    frame=993650 fps=4575 q=-1.0 size=16874496kB time=04:35:52.61 bitrate=8351.3kbits/s speed=76.2x    frame=995849 fps=4575 q=-1.0 size=16914944kB time=04:36:29.22 bitrate=8352.8kbits/s speed=76.2x    frame=998135 fps=4575 q=-1.0 size=16956672kB time=04:37:07.30 bitrate=8354.3kbits/s speed=76.2x    frame=1000296 fps=4574 q=-1.0 size=16995072kB time=04:37:43.31 bitrate=8355.1kbits/s speed=76.2x    frame=1002597 fps=4574 q=-1.0 size=17036800kB time=04:38:21.64 bitrate=8356.4kbits/s speed=76.2x    frame=1004835 fps=4574 q=-1.0 size=17080064kB time=04:38:58.92 bitrate=8359.0kbits/s speed=76.2x    frame=1006459 fps=4571 q=-1.0 size=17110784kB time=04:39:25.96 bitrate=8360.5kbits/s speed=76.1x    frame=1008389 fps=4570 q=-1.0 size=17144320kB time=04:39:58.12 bitrate=8360.8kbits/s speed=76.1x    frame=1010577 fps=4569 q=-1.0 size=17184000kB time=04:40:34.56 bitrate=8362.0kbits/s speed=76.1x    frame=1012822 fps=4569 q=-1.0 size=17226752kB time=04:41:11.96 bitrate=8364.3kbits/s speed=76.1x    frame=1016333 fps=4574 q=-1.0 size=17266432kB time=04:42:10.44 bitrate=8354.6kbits/s speed=76.2x    frame=1019000 fps=4576 q=-1.0 size=17305088kB time=04:42:54.89 bitrate=8351.3kbits/s speed=76.2x    frame=1020988 fps=4575 q=-1.0 size=17343488kB time=04:43:28.02 bitrate=8353.6kbits/s speed=76.2x    frame=1023821 fps=4577 q=-1.0 size=17384448kB time=04:44:15.20 bitrate=8350.1kbits/s speed=76.2x    frame=1025649 fps=4575 q=-1.0 size=17422592kB time=04:44:45.68 bitrate=8353.5kbits/s speed=76.2x    frame=1027607 fps=4574 q=-1.0 size=17463296kB time=04:45:18.30 bitrate=8357.1kbits/s speed=76.2x    frame=1030923 fps=4578 q=-1.0 size=17503488kB time=04:46:13.54 bitrate=8349.4kbits/s speed=76.3x    frame=1033058 fps=4578 q=-1.0 size=17541376kB time=04:46:49.08 bitrate=8350.2kbits/s speed=76.3x    frame=1035761 fps=4579 q=-1.0 size=17584384kB time=04:47:34.13 bitrate=8348.8kbits/s speed=76.3x    frame=1037883 fps=4579 q=-1.0 size=17625088kB time=04:48:09.49 bitrate=8351.0kbits/s speed=76.3x    frame=1040474 fps=4580 q=-1.0 size=17665024kB time=04:48:52.63 bitrate=8349.1kbits/s speed=76.3x    frame=1042688 fps=4580 q=-1.0 size=17707776kB time=04:49:29.54 bitrate=8351.5kbits/s speed=76.3x    frame=1044906 fps=4579 q=-1.0 size=17747200kB time=04:50:06.50 bitrate=8352.3kbits/s speed=76.3x    frame=1047041 fps=4579 q=-1.0 size=17787392kB time=04:50:42.07 bitrate=8354.2kbits/s speed=76.3x    frame=1049555 fps=4580 q=-1.0 size=17829888kB time=04:51:23.95 bitrate=8354.1kbits/s speed=76.3x    frame=1051368 fps=4577 q=-1.0 size=17866496kB time=04:51:54.14 bitrate=8356.8kbits/s speed=76.3x    frame=1053884 fps=4578 q=-1.0 size=17906688kB time=04:52:36.07 bitrate=8355.6kbits/s speed=76.3x    frame=1056174 fps=4578 q=-1.0 size=17948928kB time=04:53:14.22 bitrate=8357.2kbits/s speed=76.3x    frame=1058085 fps=4577 q=-1.0 size=17986816kB time=04:53:46.06 bitrate=8359.7kbits/s speed=76.2x    frame=1061404 fps=4581 q=-1.0 size=18027008kB time=04:54:41.34 bitrate=8352.2kbits/s speed=76.3x    frame=1063383 fps=4580 q=-1.0 size=18064384kB time=04:55:14.30 bitrate=8353.9kbits/s speed=76.3x    frame=1065531 fps=4579 q=-1.0 size=18105344kB time=04:55:50.09 bitrate=8356.0kbits/s speed=76.3x    frame=1067619 fps=4578 q=-1.0 size=18148608kB time=04:56:24.85 bitrate=8359.6kbits/s speed=76.3x    frame=1069727 fps=4578 q=-1.0 size=18187264kB time=04:56:59.98 bitrate=8360.8kbits/s speed=76.3x    frame=1071887 fps=4577 q=-1.0 size=18229760kB time=04:57:35.99 bitrate=8363.5kbits/s speed=76.2x    frame=1073992 fps=4576 q=-1.0 size=18271744kB time=04:58:11.03 bitrate=8366.3kbits/s speed=76.2x    frame=1075759 fps=4574 q=-1.0 size=18308608kB time=04:58:40.50 bitrate=8369.4kbits/s speed=76.2x    frame=1077828 fps=4573 q=-1.0 size=18349824kB time=04:59:14.94 bitrate=8372.2kbits/s speed=76.2x    frame=1079822 fps=4572 q=-1.0 size=18389504kB time=04:59:48.17 bitrate=8374.8kbits/s speed=76.2x    frame=1081609 fps=4570 q=-1.0 size=18426624kB time=05:00:17.95 bitrate=8377.8kbits/s speed=76.1x    frame=1083748 fps=4569 q=-1.0 size=18467072kB time=05:00:53.60 bitrate=8379.6kbits/s speed=76.1x    frame=1086083 fps=4569 q=-1.0 size=18506752kB time=05:01:32.47 bitrate=8379.6kbits/s speed=76.1x    frame=1088184 fps=4569 q=-1.0 size=18546176kB time=05:02:07.50 bitrate=8381.2kbits/s speed=76.1x    frame=1090708 fps=4570 q=-1.0 size=18588672kB time=05:02:49.54 bitrate=8381.0kbits/s speed=76.1x    frame=1093102 fps=4570 q=-1.0 size=18626560kB time=05:03:29.42 bitrate=8379.7kbits/s speed=76.1x    frame=1095254 fps=4569 q=-1.0 size=18669312kB time=05:04:05.27 bitrate=8382.4kbits/s speed=76.1x    frame=1097403 fps=4569 q=-1.0 size=18712064kB time=05:04:41.08 bitrate=8385.1kbits/s speed=76.1x    frame=1099201 fps=4567 q=-1.0 size=18749440kB time=05:05:11.04 bitrate=8388.1kbits/s speed=76.1x    frame=1101226 fps=4566 q=-1.0 size=18791424kB time=05:05:44.78 bitrate=8391.5kbits/s speed=76.1x    frame=1103227 fps=4565 q=-1.0 size=18831360kB time=05:06:18.07 bitrate=8394.1kbits/s speed=  76x    frame=1105202 fps=4563 q=-1.0 size=18871296kB time=05:06:50.97 bitrate=8396.8kbits/s speed=  76x    frame=1107378 fps=4563 q=-1.0 size=18914816kB time=05:07:27.23 bitrate=8399.6kbits/s speed=  76x    frame=1109748 fps=4563 q=-1.0 size=18952192kB time=05:08:06.73 bitrate=8398.3kbits/s speed=  76x    frame=1111758 fps=4562 q=-1.0 size=18993920kB time=05:08:40.21 bitrate=8401.5kbits/s speed=  76x    frame=1113330 fps=4559 q=-1.0 size=19026688kB time=05:09:06.38 bitrate=8404.2kbits/s speed=75.9x    frame=1114883 fps=4556 q=-1.0 size=19058944kB time=05:09:32.27 bitrate=8406.7kbits/s speed=75.9x    frame=1117147 fps=4556 q=-1.0 size=19101184kB time=05:10:09.97 bitrate=8408.2kbits/s speed=75.9x    frame=1119133 fps=4555 q=-1.0 size=19140096kB time=05:10:43.08 bitrate=8410.4kbits/s speed=75.9x    frame=1120941 fps=4553 q=-1.0 size=19177728kB time=05:11:13.20 bitrate=8413.3kbits/s speed=75.8x    frame=1123000 fps=4552 q=-1.0 size=19219456kB time=05:11:47.51 bitrate=8416.2kbits/s speed=75.8x    frame=1125009 fps=4551 q=-1.0 size=19259392kB time=05:12:20.96 bitrate=8418.6kbits/s speed=75.8x    frame=1126966 fps=4550 q=-1.0 size=19300096kB time=05:12:53.56 bitrate=8421.8kbits/s speed=75.8x    frame=1128932 fps=4548 q=-1.0 size=19341056kB time=05:13:26.32 bitrate=8424.9kbits/s speed=75.8x    frame=1130674 fps=4546 q=-1.0 size=19377152kB time=05:13:55.32 bitrate=8427.7kbits/s speed=75.7x    frame=1132730 fps=4545 q=-1.0 size=19418112kB time=05:14:29.60 bitrate=8430.1kbits/s speed=75.7x    frame=1134793 fps=4545 q=-1.0 size=19458048kB time=05:15:03.98 bitrate=8432.1kbits/s speed=75.7x    frame=1136562 fps=4543 q=-1.0 size=19492864kB time=05:15:33.43 bitrate=8434.1kbits/s speed=75.7x    frame=1138871 fps=4543 q=-1.0 size=19534080kB time=05:16:11.90 bitrate=8434.7kbits/s speed=75.7x    frame=1140719 fps=4541 q=-1.0 size=19572480kB time=05:16:42.69 bitrate=8437.6kbits/s speed=75.6x    frame=1142495 fps=4539 q=-1.0 size=19608576kB time=05:17:12.26 bitrate=8440.1kbits/s speed=75.6x    frame=1144397 fps=4538 q=-1.0 size=19645952kB time=05:17:43.95 bitrate=8442.1kbits/s speed=75.6x    frame=1146239 fps=4536 q=-1.0 size=19684608kB time=05:18:14.61 bitrate=8445.1kbits/s speed=75.6x    frame=1148152 fps=4535 q=-1.0 size=19723520kB time=05:18:46.51 bitrate=8447.7kbits/s speed=75.5x    frame=1150371 fps=4534 q=-1.0 size=19763968kB time=05:19:23.45 bitrate=8448.7kbits/s speed=75.5x    frame=1152173 fps=4532 q=-1.0 size=19801600kB time=05:19:53.48 bitrate=8451.5kbits/s speed=75.5x    frame=1154089 fps=4531 q=-1.0 size=19841280kB time=05:20:25.43 bitrate=8454.4kbits/s speed=75.5x    frame=1156013 fps=4530 q=-1.0 size=19881216kB time=05:20:57.47 bitrate=8457.3kbits/s speed=75.5x    frame=1159004 fps=4533 q=-1.0 size=19917824kB time=05:21:47.30 bitrate=8451.0kbits/s speed=75.5x    frame=1161513 fps=4534 q=-1.0 size=19956480kB time=05:22:29.08 bitrate=8449.2kbits/s speed=75.5x    frame=1163697 fps=4533 q=-1.0 size=19995904kB time=05:23:05.43 bitrate=8450.0kbits/s speed=75.5x    frame=1165965 fps=4533 q=-1.0 size=20035840kB time=05:23:43.23 bitrate=8450.4kbits/s speed=75.5x    frame=1168612 fps=4535 q=-1.0 size=20075520kB time=05:24:27.32 bitrate=8447.9kbits/s speed=75.5x    frame=1170810 fps=4534 q=-1.0 size=20112640kB time=05:25:03.90 bitrate=8447.7kbits/s speed=75.5x    frame=1173339 fps=4535 q=-1.0 size=20154112kB time=05:25:46.04 bitrate=8446.8kbits/s speed=75.6x    frame=1175662 fps=4536 q=-1.0 size=20192768kB time=05:26:24.75 bitrate=8446.3kbits/s speed=75.6x    frame=1178049 fps=4536 q=-1.0 size=20231680kB time=05:27:04.54 bitrate=8445.4kbits/s speed=75.6x    frame=1180157 fps=4535 q=-1.0 size=20272128kB time=05:27:39.66 bitrate=8447.2kbits/s speed=75.6x    frame=1182391 fps=4535 q=-1.0 size=20312832kB time=05:28:16.87 bitrate=8448.2kbits/s speed=75.6x    frame=1184987 fps=4537 q=-1.0 size=20348928kB time=05:29:00.12 bitrate=8444.6kbits/s speed=75.6x    frame=1187595 fps=4538 q=-1.0 size=20386816kB time=05:29:43.59 bitrate=8441.8kbits/s speed=75.6x    frame=1189827 fps=4538 q=-1.0 size=20426496kB time=05:30:20.72 bitrate=8442.4kbits/s speed=75.6x    frame=1192534 fps=4539 q=-1.0 size=20465920kB time=05:31:05.85 bitrate=8439.4kbits/s speed=75.6x    frame=1195139 fps=4541 q=-1.0 size=20507392kB time=05:31:49.22 bitrate=8438.1kbits/s speed=75.6x    frame=1197384 fps=4541 q=-1.0 size=20547072kB time=05:32:26.62 bitrate=8438.6kbits/s speed=75.6x    frame=1199843 fps=4541 q=-1.0 size=20588544kB time=05:33:07.61 bitrate=8438.3kbits/s speed=75.7x    frame=1202241 fps=4542 q=-1.0 size=20630016kB time=05:33:47.57 bitrate=8438.4kbits/s speed=75.7x    frame=1204282 fps=4541 q=-1.0 size=20666624kB time=05:34:21.55 bitrate=8439.1kbits/s speed=75.6x    frame=1206447 fps=4540 q=-1.0 size=20704512kB time=05:34:57.66 bitrate=8439.4kbits/s speed=75.6x    frame=1209101 fps=4542 q=-1.0 size=20742400kB time=05:35:41.86 bitrate=8436.2kbits/s speed=75.7x    frame=1211488 fps=4542 q=-1.0 size=20779776kB time=05:36:21.65 bitrate=8434.8kbits/s speed=75.7x    frame=1214229 fps=4544 q=-1.0 size=20818944kB time=05:37:07.31 bitrate=8431.6kbits/s speed=75.7x    frame=1216942 fps=4546 q=-1.0 size=20858112kB time=05:37:52.51 bitrate=8428.6kbits/s speed=75.7x    frame=1219487 fps=4547 q=-1.0 size=20899072kB time=05:38:34.87 bitrate=8427.6kbits/s speed=75.7x    frame=1222733 fps=4550 q=-1.0 size=20938240kB time=05:39:28.97 bitrate=8420.9kbits/s speed=75.8x    frame=1224950 fps=4550 q=-1.0 size=20974336kB time=05:40:05.87 bitrate=8420.2kbits/s speed=75.8x    frame=1226414 fps=4547 q=-1.0 size=20999936kB time=05:40:30.27 bitrate=8420.4kbits/s speed=75.7x    frame=1228461 fps=4546 q=-1.0 size=21038080kB time=05:41:04.33 bitrate=8421.7kbits/s speed=75.7x    frame=1230454 fps=4545 q=-1.0 size=21074432kB time=05:41:37.52 bitrate=8422.6kbits/s speed=75.7x    frame=1232710 fps=4545 q=-1.0 size=21116160kB time=05:42:15.14 bitrate=8423.8kbits/s speed=75.7x    frame=1236694 fps=4551 q=-1.0 size=21156864kB time=05:43:21.50 bitrate=8412.8kbits/s speed=75.8x    frame=1239240 fps=4552 q=-1.0 size=21199872kB time=05:44:03.89 bitrate=8412.6kbits/s speed=75.8x    frame=1241672 fps=4553 q=-1.0 size=21242624kB time=05:44:44.40 bitrate=8413.1kbits/s speed=75.8x    frame=1243659 fps=4552 q=-1.0 size=21283840kB time=05:45:17.51 bitrate=8415.9kbits/s speed=75.8x    frame=1245742 fps=4551 q=-1.0 size=21327360kB time=05:45:52.21 bitrate=8419.0kbits/s speed=75.8x    frame=1247739 fps=4550 q=-1.0 size=21369088kB time=05:46:25.46 bitrate=8422.0kbits/s speed=75.8x    frame=1249483 fps=4548 q=-1.0 size=21404928kB time=05:46:54.52 bitrate=8424.4kbits/s speed=75.8x    frame=1251453 fps=4547 q=-1.0 size=21446144kB time=05:47:27.35 bitrate=8427.3kbits/s speed=75.7x    frame=1253318 fps=4546 q=-1.0 size=21484800kB time=05:47:58.40 bitrate=8429.9kbits/s speed=75.7x    frame=1255274 fps=4545 q=-1.0 size=21525248kB time=05:48:31.00 bitrate=8432.6kbits/s speed=75.7x    frame=1257293 fps=4544 q=-1.0 size=21567488kB time=05:49:04.59 bitrate=8435.6kbits/s speed=75.7x    frame=1259113 fps=4542 q=-1.0 size=21605120kB time=05:49:34.93 bitrate=8438.1kbits/s speed=75.7x    frame=1261028 fps=4541 q=-1.0 size=21644800kB time=05:50:06.80 bitrate=8440.8kbits/s speed=75.6x    frame=1263019 fps=4540 q=-1.0 size=21686272kB time=05:50:40.00 bitrate=8443.6kbits/s speed=75.6x    frame=1264835 fps=4538 q=-1.0 size=21723904kB time=05:51:10.22 bitrate=8446.1kbits/s speed=75.6x    frame=1266895 fps=4537 q=-1.0 size=21766656kB time=05:51:44.56 bitrate=8449.0kbits/s speed=75.6x    frame=1268978 fps=4537 q=-1.0 size=21809920kB time=05:52:19.24 bitrate=8451.9kbits/s speed=75.6x    frame=1270738 fps=4535 q=-1.0 size=21846528kB time=05:52:48.55 bitrate=8454.4kbits/s speed=75.5x    frame=1272813 fps=4534 q=-1.0 size=21889536kB time=05:53:23.11 bitrate=8457.2kbits/s speed=75.5x    frame=1274714 fps=4533 q=-1.0 size=21929216kB time=05:53:54.78 bitrate=8459.9kbits/s speed=75.5x    frame=1276888 fps=4532 q=-1.0 size=21968384kB time=05:54:31.00 bitrate=8460.6kbits/s speed=75.5x    frame=1278881 fps=4531 q=-1.0 size=22009856kB time=05:55:04.21 bitrate=8463.3kbits/s speed=75.5x    frame=1281171 fps=4532 q=-1.0 size=22048512kB time=05:55:42.34 bitrate=8463.1kbits/s speed=75.5x    frame=1283081 fps=4530 q=-1.0 size=22088192kB time=05:56:14.12 bitrate=8465.7kbits/s speed=75.5x    frame=1285161 fps=4530 q=-1.0 size=22131200kB time=05:56:48.75 bitrate=8468.4kbits/s speed=75.5x    frame=1287021 fps=4528 q=-1.0 size=22169856kB time=05:57:19.77 bitrate=8471.0kbits/s speed=75.4x    frame=1288924 fps=4527 q=-1.0 size=22209536kB time=05:57:51.47 bitrate=8473.6kbits/s speed=75.4x    frame=1290912 fps=4526 q=-1.0 size=22250752kB time=05:58:24.58 bitrate=8476.2kbits/s speed=75.4x    frame=1292677 fps=4524 q=-1.0 size=22287360kB time=05:58:53.97 bitrate=8478.6kbits/s speed=75.4x    frame=1294660 fps=4523 q=-1.0 size=22328576kB time=05:59:26.97 bitrate=8481.3kbits/s speed=75.3x    frame=1296579 fps=4522 q=-1.0 size=22368512kB time=05:59:58.95 bitrate=8483.9kbits/s speed=75.3x    frame=1298673 fps=4521 q=-1.0 size=22408192kB time=06:00:33.81 bitrate=8485.2kbits/s speed=75.3x    frame=1300740 fps=4521 q=-1.0 size=22451200kB time=06:01:08.26 bitrate=8488.0kbits/s speed=75.3x    frame=1302821 fps=4520 q=-1.0 size=22488320kB time=06:01:42.94 bitrate=8488.4kbits/s speed=75.3x    frame=1304850 fps=4519 q=-1.0 size=22530304kB time=06:02:16.72 bitrate=8491.1kbits/s speed=75.3x    frame=1306847 fps=4518 q=-1.0 size=22572032kB time=06:02:49.96 bitrate=8493.8kbits/s speed=75.3x    frame=1308635 fps=4517 q=-1.0 size=22609152kB time=06:03:19.77 bitrate=8496.2kbits/s speed=75.2x    frame=1310638 fps=4516 q=-1.0 size=22650880kB time=06:03:53.11 bitrate=8498.8kbits/s speed=75.2x    frame=1312603 fps=4515 q=-1.0 size=22691840kB time=06:04:25.84 bitrate=8501.5kbits/s speed=75.2x    frame=1314537 fps=4514 q=-1.0 size=22731776kB time=06:04:58.04 bitrate=8503.9kbits/s speed=75.2x    frame=1316518 fps=4513 q=-1.0 size=22772992kB time=06:05:31.04 bitrate=8506.5kbits/s speed=75.2x    frame=1318426 fps=4512 q=-1.0 size=22812416kB time=06:06:02.81 bitrate=8508.9kbits/s speed=75.2x    frame=1320424 fps=4511 q=-1.0 size=22853888kB time=06:06:36.07 bitrate=8511.5kbits/s speed=75.1x    frame=1322433 fps=4510 q=-1.0 size=22895872kB time=06:07:09.54 bitrate=8514.2kbits/s speed=75.1x    frame=1324233 fps=4508 q=-1.0 size=22932992kB time=06:07:39.52 bitrate=8516.4kbits/s speed=75.1x    frame=1326248 fps=4507 q=-1.0 size=22974720kB time=06:08:13.08 bitrate=8518.9kbits/s speed=75.1x    frame=1328331 fps=4507 q=-1.0 size=23017984kB time=06:08:47.78 bitrate=8521.6kbits/s speed=75.1x    frame=1330267 fps=4506 q=-1.0 size=23054848kB time=06:09:19.99 bitrate=8522.8kbits/s speed=75.1x    frame=1331758 fps=4503 q=-1.0 size=23084288kB time=06:09:44.85 bitrate=8524.1kbits/s speed=  75x    frame=1333606 fps=4502 q=-1.0 size=23116288kB time=06:10:15.64 bitrate=8524.1kbits/s speed=  75x    frame=1335507 fps=4501 q=-1.0 size=23155456kB time=06:10:47.28 bitrate=8526.4kbits/s speed=  75x    frame=1338065 fps=4502 q=-1.0 size=23197184kB time=06:11:29.88 bitrate=8525.5kbits/s speed=  75x    frame=1340291 fps=4502 q=-1.0 size=23235840kB time=06:12:06.93 bitrate=8525.5kbits/s speed=  75x    frame=1342260 fps=4501 q=-1.0 size=23277056kB time=06:12:39.76 bitrate=8528.1kbits/s speed=  75x    frame=1344271 fps=4500 q=-1.0 size=23318784kB time=06:13:13.24 bitrate=8530.6kbits/s speed=  75x    frame=1346168 fps=4499 q=-1.0 size=23358208kB time=06:13:44.84 bitrate=8533.0kbits/s speed=74.9x    frame=1348191 fps=4498 q=-1.0 size=23400192kB time=06:14:18.53 bitrate=8535.5kbits/s speed=74.9x    frame=1350158 fps=4497 q=-1.0 size=23441152kB time=06:14:51.29 bitrate=8538.0kbits/s speed=74.9x    frame=1351867 fps=4495 q=-1.0 size=23476736kB time=06:15:19.72 bitrate=8540.1kbits/s speed=74.9x    frame=1353861 fps=4494 q=-1.0 size=23517952kB time=06:15:52.95 bitrate=8542.5kbits/s speed=74.9x    frame=1355636 fps=4493 q=-1.0 size=23555072kB time=06:16:22.52 bitrate=8544.8kbits/s speed=74.8x    frame=1357436 fps=4491 q=-1.0 size=23592448kB time=06:16:52.50 bitrate=8547.0kbits/s speed=74.8x    frame=1359327 fps=4490 q=-1.0 size=23631616kB time=06:17:23.96 bitrate=8549.3kbits/s speed=74.8x    frame=1361070 fps=4488 q=-1.0 size=23667968kB time=06:17:53.00 bitrate=8551.5kbits/s speed=74.8x    frame=1363082 fps=4488 q=-1.0 size=23709696kB time=06:18:26.54 bitrate=8553.9kbits/s speed=74.8x    frame=1364847 fps=4486 q=-1.0 size=23746304kB time=06:18:55.94 bitrate=8556.0kbits/s speed=74.7x    frame=1366774 fps=4485 q=-1.0 size=23786496kB time=06:19:28.03 bitrate=8558.4kbits/s speed=74.7x    frame=1368749 fps=4484 q=-1.0 size=23827456kB time=06:20:00.91 bitrate=8560.8kbits/s speed=74.7x    frame=1370542 fps=4483 q=-1.0 size=23864832kB time=06:20:30.81 bitrate=8563.0kbits/s speed=74.7x    frame=1372555 fps=4482 q=-1.0 size=23906304kB time=06:21:04.34 bitrate=8565.3kbits/s speed=74.7x    frame=1374859 fps=4482 q=-1.0 size=23948032kB time=06:21:42.71 bitrate=8565.9kbits/s speed=74.7x    frame=1376733 fps=4481 q=-1.0 size=23986944kB time=06:22:13.93 bitrate=8568.1kbits/s speed=74.6x    frame=1379089 fps=4481 q=-1.0 size=24027648kB time=06:22:53.14 bitrate=8568.0kbits/s speed=74.6x    frame=1380987 fps=4480 q=-1.0 size=24067072kB time=06:23:24.77 bitrate=8570.3kbits/s speed=74.6x    frame=1382780 fps=4479 q=-1.0 size=24104192kB time=06:23:54.67 bitrate=8572.4kbits/s speed=74.6x    frame=1384737 fps=4478 q=-1.0 size=24144896kB time=06:24:27.27 bitrate=8574.7kbits/s speed=74.6x    frame=1386525 fps=4476 q=-1.0 size=24182016kB time=06:24:57.06 bitrate=8576.8kbits/s speed=74.6x    frame=1388425 fps=4475 q=-1.0 size=24221696kB time=06:25:28.70 bitrate=8579.1kbits/s speed=74.5x    frame=1390420 fps=4474 q=-1.0 size=24263168kB time=06:26:01.95 bitrate=8581.5kbits/s speed=74.5x    frame=1392182 fps=4473 q=-1.0 size=24299520kB time=06:26:31.26 bitrate=8583.5kbits/s speed=74.5x    frame=1394180 fps=4472 q=-1.0 size=24341248kB time=06:27:04.54 bitrate=8585.9kbits/s speed=74.5x    frame=1396177 fps=4471 q=-1.0 size=24382464kB time=06:27:37.83 bitrate=8588.1kbits/s speed=74.5x    frame=1398039 fps=4470 q=-1.0 size=24421376kB time=06:28:08.85 bitrate=8590.4kbits/s speed=74.5x    frame=1400013 fps=4469 q=-1.0 size=24462336kB time=06:28:41.72 bitrate=8592.7kbits/s speed=74.5x    frame=1401997 fps=4469 q=-1.0 size=24503296kB time=06:29:14.77 bitrate=8594.9kbits/s speed=74.4x    frame=1404026 fps=4468 q=-1.0 size=24545792kB time=06:29:48.55 bitrate=8597.3kbits/s speed=74.4x    frame=1405985 fps=4467 q=-1.0 size=24586496kB time=06:30:21.19 bitrate=8599.6kbits/s speed=74.4x    frame=1407954 fps=4466 q=-1.0 size=24627200kB time=06:30:53.96 bitrate=8601.8kbits/s speed=74.4x    frame=1410190 fps=4466 q=-1.0 size=24667392kB time=06:31:31.24 bitrate=8602.2kbits/s speed=74.4x    frame=1412605 fps=4467 q=-1.0 size=24709632kB time=06:32:11.46 bitrate=8602.2kbits/s speed=74.4x    frame=1414541 fps=4466 q=-1.0 size=24750080kB time=06:32:43.67 bitrate=8604.5kbits/s speed=74.4x    frame=1416479 fps=4465 q=-1.0 size=24790272kB time=06:33:15.98 bitrate=8606.6kbits/s speed=74.4x    frame=1418433 fps=4464 q=-1.0 size=24831232kB time=06:33:48.55 bitrate=8609.0kbits/s speed=74.4x    frame=1420383 fps=4463 q=-1.0 size=24871424kB time=06:34:21.00 bitrate=8611.1kbits/s speed=74.3x    frame=1422388 fps=4462 q=-1.0 size=24913152kB time=06:34:54.43 bitrate=8613.4kbits/s speed=74.3x    frame=1424009 fps=4460 q=-1.0 size=24946688kB time=06:35:21.42 bitrate=8615.1kbits/s speed=74.3x    frame=1425297 fps=4457 q=-1.0 size=24973312kB time=06:35:42.86 bitrate=8616.5kbits/s speed=74.3x    frame=1427136 fps=4456 q=-1.0 size=25011968kB time=06:36:13.51 bitrate=8618.8kbits/s speed=74.2x    frame=1429165 fps=4456 q=-1.0 size=25053696kB time=06:36:47.30 bitrate=8620.9kbits/s speed=74.2x    frame=1431022 fps=4454 q=-1.0 size=25092352kB time=06:37:18.22 bitrate=8623.0kbits/s speed=74.2x    frame=1433032 fps=4454 q=-1.0 size=25134080kB time=06:37:51.69 bitrate=8625.2kbits/s speed=74.2x    frame=1435017 fps=4453 q=-1.0 size=25175296kB time=06:38:24.76 bitrate=8627.4kbits/s speed=74.2x    frame=1436721 fps=4451 q=-1.0 size=25210880kB time=06:38:53.13 bitrate=8629.4kbits/s speed=74.2x    frame=1438724 fps=4451 q=-1.0 size=25252352kB time=06:39:26.49 bitrate=8631.5kbits/s speed=74.1x    frame=1440621 fps=4450 q=-1.0 size=25292032kB time=06:39:58.07 bitrate=8633.7kbits/s speed=74.1x    frame=1442532 fps=4449 q=-1.0 size=25331712kB time=06:40:29.91 bitrate=8635.8kbits/s speed=74.1x    frame=1444777 fps=4449 q=-1.0 size=25373696kB time=06:41:07.33 bitrate=8636.7kbits/s speed=74.1x    frame=1446612 fps=4448 q=-1.0 size=25412096kB time=06:41:37.91 bitrate=8638.8kbits/s speed=74.1x    frame=1448947 fps=4448 q=-1.0 size=25451264kB time=06:42:16.81 bitrate=8638.1kbits/s speed=74.1x    frame=1450863 fps=4447 q=-1.0 size=25490688kB time=06:42:48.74 bitrate=8640.1kbits/s speed=74.1x    frame=1452632 fps=4446 q=-1.0 size=25527552kB time=06:43:18.20 bitrate=8642.0kbits/s speed=74.1x    frame=1454614 fps=4445 q=-1.0 size=25568768kB time=06:43:51.21 bitrate=8644.2kbits/s speed=  74x    frame=1456603 fps=4444 q=-1.0 size=25609984kB time=06:44:24.35 bitrate=8646.3kbits/s speed=  74x    frame=1458360 fps=4443 q=-1.0 size=25646336kB time=06:44:53.62 bitrate=8648.1kbits/s speed=  74x    frame=1460342 fps=4442 q=-1.0 size=25687808kB time=06:45:26.59 bitrate=8650.4kbits/s speed=  74x    frame=1462298 fps=4441 q=-1.0 size=25728512kB time=06:45:59.15 bitrate=8652.5kbits/s speed=  74x    frame=1464338 fps=4441 q=-1.0 size=25770752kB time=06:46:33.14 bitrate=8654.6kbits/s speed=  74x    frame=1466385 fps=4440 q=-1.0 size=25813248kB time=06:47:07.26 bitrate=8656.8kbits/s speed=  74x    frame=1468361 fps=4439 q=-1.0 size=25854208kB time=06:47:40.18 bitrate=8658.9kbits/s speed=  74x    frame=1470372 fps=4439 q=-1.0 size=25895936kB time=06:48:13.70 bitrate=8661.0kbits/s speed=73.9x    frame=1472317 fps=4438 q=-1.0 size=25936896kB time=06:48:46.11 bitrate=8663.2kbits/s speed=73.9x    frame=1474200 fps=4437 q=-1.0 size=25975808kB time=06:49:17.47 bitrate=8665.1kbits/s speed=73.9x    frame=1476133 fps=4436 q=-1.0 size=26016000kB time=06:49:49.68 bitrate=8667.2kbits/s speed=73.9x    frame=1477906 fps=4435 q=-1.0 size=26052864kB time=06:50:19.18 bitrate=8669.1kbits/s speed=73.9x    frame=1479919 fps=4434 q=-1.0 size=26093056kB time=06:50:52.74 bitrate=8670.6kbits/s speed=73.9x    frame=1481952 fps=4434 q=-1.0 size=26130944kB time=06:51:26.60 bitrate=8671.3kbits/s speed=73.9x    frame=1484118 fps=4433 q=-1.0 size=26167808kB time=06:52:02.67 bitrate=8670.9kbits/s speed=73.9x    frame=1485995 fps=4432 q=-1.0 size=26206464kB time=06:52:33.95 bitrate=8672.7kbits/s speed=73.8x    frame=1487743 fps=4431 q=-1.0 size=26242560kB time=06:53:03.03 bitrate=8674.4kbits/s speed=73.8x    frame=1489512 fps=4430 q=-1.0 size=26279424kB time=06:53:32.48 bitrate=8676.3kbits/s speed=73.8x    frame=1491386 fps=4429 q=-1.0 size=26318336kB time=06:54:03.72 bitrate=8678.2kbits/s speed=73.8x    frame=1493147 fps=4427 q=-1.0 size=26355200kB time=06:54:33.05 bitrate=8680.1kbits/s speed=73.7x    frame=1495027 fps=4426 q=-1.0 size=26394368kB time=06:55:04.38 bitrate=8682.1kbits/s speed=73.7x    frame=1496931 fps=4425 q=-1.0 size=26433792kB time=06:55:36.06 bitrate=8684.0kbits/s speed=73.7x    frame=1498743 fps=4424 q=-1.0 size=26471168kB time=06:56:06.27 bitrate=8685.8kbits/s speed=73.7x    frame=1500703 fps=4423 q=-1.0 size=26512384kB time=06:56:38.88 bitrate=8688.0kbits/s speed=73.7x    frame=1503475 fps=4425 q=-1.0 size=26551552kB time=06:57:25.09 bitrate=8684.7kbits/s speed=73.7x    frame=1504526 fps=4427 q=-1.0 Lsize=26559831kB time=06:57:42.57 bitrate=8681.4kbits/s speed=73.7x    
video:25909252kB audio:600204kB subtitle:0kB other streams:0kB global headers:0kB muxing overhead: 0.190025%
